<svg xmlns="http://www.w3.org/2000/svg" width="1000" height="1000" style="background-color:#0d1117;">
<line x1="453.333" y1="266.667" x2="453.333" y2="360" stroke="#3fb950" stroke-width="2.5" opacity="0.8" />
<line x1="826.667" y1="173.333" x2="920" y2="173.333" stroke="#3fb950" stroke-width="2.5" opacity="0.8" />
<line x1="826.667" y1="173.333" x2="826.667" y2="266.667" stroke="#3fb950" stroke-width="2.5" opacity="0.8" />
<line x1="920" y1="173.333" x2="920" y2="266.667" stroke="#3fb950" stroke-width="2.5" opacity="0.8" />
<line x1="80" y1="266.667" x2="173.333" y2="266.667" stroke="#3fb950" stroke-width="2.5" opacity="0.8" />
<line x1="80" y1="266.667" x2="80" y2="360" stroke="#3fb950" stroke-width="2.5" opacity="0.8" />
<line x1="173.333" y1="266.667" x2="266.667" y2="266.667" stroke="#3fb950" stroke-width="2.5" opacity="0.8" />
<line x1="173.333" y1="266.667" x2="173.333" y2="360" stroke="#3fb950" stroke-width="2.5" opacity="0.8" />
<line x1="266.667" y1="266.667" x2="360" y2="266.667" stroke="#3fb950" stroke-width="2.5" opacity="0.8" />
<line x1="266.667" y1="266.667" x2="266.667" y2="360" stroke="#3fb950" stroke-width="2.5" opacity="0.8" />
<line x1="266.667" y1="80" x2="266.667" y2="173.333" stroke="#3fb950" stroke-width="2.5" opacity="0.8" />
<line x1="360" y1="266.667" x2="453.333" y2="266.667" stroke="#3fb950" stroke-width="2.5" opacity="0.8" />
<line x1="360" y1="266.667" x2="360" y2="360" stroke="#3fb950" stroke-width="2.5" opacity="0.8" />
<line x1="453.333" y1="266.667" x2="546.667" y2="266.667" stroke="#3fb950" stroke-width="2.5" opacity="0.8" />
<line x1="266.667" y1="80" x2="360" y2="80" stroke="#3fb950" stroke-width="2.5" opacity="0.8" />
<line x1="733.333" y1="173.333" x2="733.333" y2="266.667" stroke="#3fb950" stroke-width="2.5" opacity="0.8" />
<line x1="546.667" y1="266.667" x2="640" y2="266.667" stroke="#3fb950" stroke-width="2.5" opacity="0.8" />
<line x1="546.667" y1="266.667" x2="546.667" y2="360" stroke="#3fb950" stroke-width="2.5" opacity="0.8" />
<line x1="640" y1="266.667" x2="733.333" y2="266.667" stroke="#3fb950" stroke-width="2.5" opacity="0.8" />
<line x1="640" y1="266.667" x2="640" y2="360" stroke="#3fb950" stroke-width="2.5" opacity="0.8" />
<line x1="733.333" y1="266.667" x2="826.667" y2="266.667" stroke="#3fb950" stroke-width="2.5" opacity="0.8" />
<line x1="733.333" y1="266.667" x2="733.333" y2="360" stroke="#3fb950" stroke-width="2.5" opacity="0.8" />
<line x1="826.667" y1="266.667" x2="826.667" y2="360" stroke="#3fb950" stroke-width="2.5" opacity="0.8" />
<line x1="920" y1="266.667" x2="920" y2="360" stroke="#3fb950" stroke-width="2.5" opacity="0.8" />
<line x1="80" y1="360" x2="80" y2="453.333" stroke="#3fb950" stroke-width="2.5" opacity="0.8" />
<line x1="173.333" y1="360" x2="173.333" y2="453.333" stroke="#3fb950" stroke-width="2.5" opacity="0.8" />
<line x1="173.333" y1="173.333" x2="173.333" y2="266.667" stroke="#3fb950" stroke-width="2.5" opacity="0.8" />
<line x1="546.667" y1="80" x2="640" y2="80" stroke="#3fb950" stroke-width="2.5" opacity="0.8" />
<line x1="546.667" y1="80" x2="546.667" y2="173.333" stroke="#3fb950" stroke-width="2.5" opacity="0.8" />
<line x1="640" y1="80" x2="733.333" y2="80" stroke="#3fb950" stroke-width="2.5" opacity="0.8" />
<line x1="453.333" y1="80" x2="453.333" y2="173.333" stroke="#3fb950" stroke-width="2.5" opacity="0.8" />
<line x1="640" y1="80" x2="640" y2="173.333" stroke="#3fb950" stroke-width="2.5" opacity="0.8" />
<line x1="733.333" y1="80" x2="826.667" y2="80" stroke="#3fb950" stroke-width="2.5" opacity="0.8" />
<line x1="733.333" y1="80" x2="733.333" y2="173.333" stroke="#3fb950" stroke-width="2.5" opacity="0.8" />
<line x1="453.333" y1="80" x2="546.667" y2="80" stroke="#3fb950" stroke-width="2.5" opacity="0.8" />
<line x1="826.667" y1="80" x2="920" y2="80" stroke="#3fb950" stroke-width="2.5" opacity="0.8" />
<line x1="80" y1="173.333" x2="173.333" y2="173.333" stroke="#3fb950" stroke-width="2.5" opacity="0.8" />
<line x1="173.333" y1="173.333" x2="266.667" y2="173.333" stroke="#3fb950" stroke-width="2.5" opacity="0.8" />
<line x1="80" y1="80" x2="173.333" y2="80" stroke="#3fb950" stroke-width="2.5" opacity="0.8" />
<line x1="266.667" y1="173.333" x2="360" y2="173.333" stroke="#3fb950" stroke-width="2.5" opacity="0.8" />
<line x1="546.667" y1="360" x2="546.667" y2="453.333" stroke="#3fb950" stroke-width="2.5" opacity="0.8" />
<line x1="173.333" y1="80" x2="266.667" y2="80" stroke="#3fb950" stroke-width="2.5" opacity="0.8" />
<line x1="546.667" y1="453.333" x2="640" y2="453.333" stroke="#3fb950" stroke-width="2.5" opacity="0.8" />
<line x1="360" y1="360" x2="360" y2="453.333" stroke="#3fb950" stroke-width="2.5" opacity="0.8" />
<line x1="453.333" y1="453.333" x2="546.667" y2="453.333" stroke="#3fb950" stroke-width="2.5" opacity="0.8" />
<line x1="266.667" y1="453.333" x2="360" y2="453.333" stroke="#3fb950" stroke-width="2.5" opacity="0.8" />
<line x1="920" y1="360" x2="920" y2="453.333" stroke="#3fb950" stroke-width="2.5" opacity="0.8" />
<line x1="826.667" y1="360" x2="826.667" y2="453.333" stroke="#3fb950" stroke-width="2.5" opacity="0.8" />
<line x1="733.333" y1="360" x2="733.333" y2="453.333" stroke="#3fb950" stroke-width="2.5" opacity="0.8" />
<circle cx="80" cy="80" r="9" fill="#238636" stroke="#ffffff" stroke-width="1.5" />
<text x="92" y="84" fill="#c9d1d9" font-size="11" font-family="sans-serif" font-weight="bold">0</text>
<circle cx="173.333" cy="80" r="9" fill="#238636" stroke="#ffffff" stroke-width="1.5" />
<text x="185.333" y="84" fill="#c9d1d9" font-size="11" font-family="sans-serif" font-weight="bold">1</text>
<circle cx="266.667" cy="80" r="9" fill="#238636" stroke="#ffffff" stroke-width="1.5" />
<text x="278.667" y="84" fill="#c9d1d9" font-size="11" font-family="sans-serif" font-weight="bold">2</text>
<circle cx="360" cy="80" r="9" fill="#238636" stroke="#ffffff" stroke-width="1.5" />
<text x="372" y="84" fill="#c9d1d9" font-size="11" font-family="sans-serif" font-weight="bold">3</text>
<circle cx="453.333" cy="80" r="9" fill="#238636" stroke="#ffffff" stroke-width="1.5" />
<text x="465.333" y="84" fill="#c9d1d9" font-size="11" font-family="sans-serif" font-weight="bold">4</text>
<circle cx="546.667" cy="80" r="9" fill="#238636" stroke="#ffffff" stroke-width="1.5" />
<text x="558.667" y="84" fill="#c9d1d9" font-size="11" font-family="sans-serif" font-weight="bold">5</text>
<circle cx="640" cy="80" r="9" fill="#238636" stroke="#ffffff" stroke-width="1.5" />
<text x="652" y="84" fill="#c9d1d9" font-size="11" font-family="sans-serif" font-weight="bold">6</text>
<circle cx="733.333" cy="80" r="9" fill="#238636" stroke="#ffffff" stroke-width="1.5" />
<text x="745.333" y="84" fill="#c9d1d9" font-size="11" font-family="sans-serif" font-weight="bold">7</text>
<circle cx="826.667" cy="80" r="9" fill="#238636" stroke="#ffffff" stroke-width="1.5" />
<text x="838.667" y="84" fill="#c9d1d9" font-size="11" font-family="sans-serif" font-weight="bold">8</text>
<circle cx="920" cy="80" r="9" fill="#238636" stroke="#ffffff" stroke-width="1.5" />
<text x="932" y="84" fill="#c9d1d9" font-size="11" font-family="sans-serif" font-weight="bold">9</text>
<circle cx="80" cy="173.333" r="9" fill="#238636" stroke="#ffffff" stroke-width="1.5" />
<text x="92" y="177.333" fill="#c9d1d9" font-size="11" font-family="sans-serif" font-weight="bold">10</text>
<circle cx="173.333" cy="173.333" r="9" fill="#238636" stroke="#ffffff" stroke-width="1.5" />
<text x="185.333" y="177.333" fill="#c9d1d9" font-size="11" font-family="sans-serif" font-weight="bold">11</text>
<circle cx="266.667" cy="173.333" r="9" fill="#238636" stroke="#ffffff" stroke-width="1.5" />
<text x="278.667" y="177.333" fill="#c9d1d9" font-size="11" font-family="sans-serif" font-weight="bold">12</text>
<circle cx="360" cy="173.333" r="9" fill="#238636" stroke="#ffffff" stroke-width="1.5" />
<text x="372" y="177.333" fill="#c9d1d9" font-size="11" font-family="sans-serif" font-weight="bold">13</text>
<circle cx="453.333" cy="173.333" r="9" fill="#238636" stroke="#ffffff" stroke-width="1.5" />
<text x="465.333" y="177.333" fill="#c9d1d9" font-size="11" font-family="sans-serif" font-weight="bold">14</text>
<circle cx="546.667" cy="173.333" r="9" fill="#238636" stroke="#ffffff" stroke-width="1.5" />
<text x="558.667" y="177.333" fill="#c9d1d9" font-size="11" font-family="sans-serif" font-weight="bold">15</text>
<circle cx="640" cy="173.333" r="9" fill="#238636" stroke="#ffffff" stroke-width="1.5" />
<text x="652" y="177.333" fill="#c9d1d9" font-size="11" font-family="sans-serif" font-weight="bold">16</text>
<circle cx="733.333" cy="173.333" r="9" fill="#238636" stroke="#ffffff" stroke-width="1.5" />
<text x="745.333" y="177.333" fill="#c9d1d9" font-size="11" font-family="sans-serif" font-weight="bold">17</text>
<circle cx="826.667" cy="173.333" r="9" fill="#238636" stroke="#ffffff" stroke-width="1.5" />
<text x="838.667" y="177.333" fill="#c9d1d9" font-size="11" font-family="sans-serif" font-weight="bold">18</text>
<circle cx="920" cy="173.333" r="9" fill="#238636" stroke="#ffffff" stroke-width="1.5" />
<text x="932" y="177.333" fill="#c9d1d9" font-size="11" font-family="sans-serif" font-weight="bold">19</text>
<circle cx="80" cy="266.667" r="9" fill="#238636" stroke="#ffffff" stroke-width="1.5" />
<text x="92" y="270.667" fill="#c9d1d9" font-size="11" font-family="sans-serif" font-weight="bold">20</text>
<circle cx="173.333" cy="266.667" r="9" fill="#238636" stroke="#ffffff" stroke-width="1.5" />
<text x="185.333" y="270.667" fill="#c9d1d9" font-size="11" font-family="sans-serif" font-weight="bold">21</text>
<circle cx="266.667" cy="266.667" r="9" fill="#238636" stroke="#ffffff" stroke-width="1.5" />
<text x="278.667" y="270.667" fill="#c9d1d9" font-size="11" font-family="sans-serif" font-weight="bold">22</text>
<circle cx="360" cy="266.667" r="9" fill="#238636" stroke="#ffffff" stroke-width="1.5" />
<text x="372" y="270.667" fill="#c9d1d9" font-size="11" font-family="sans-serif" font-weight="bold">23</text>
<circle cx="453.333" cy="266.667" r="9" fill="#238636" stroke="#ffffff" stroke-width="1.5" />
<text x="465.333" y="270.667" fill="#c9d1d9" font-size="11" font-family="sans-serif" font-weight="bold">24</text>
<circle cx="546.667" cy="266.667" r="9" fill="#238636" stroke="#ffffff" stroke-width="1.5" />
<text x="558.667" y="270.667" fill="#c9d1d9" font-size="11" font-family="sans-serif" font-weight="bold">25</text>
<circle cx="640" cy="266.667" r="9" fill="#238636" stroke="#ffffff" stroke-width="1.5" />
<text x="652" y="270.667" fill="#c9d1d9" font-size="11" font-family="sans-serif" font-weight="bold">26</text>
<circle cx="733.333" cy="266.667" r="9" fill="#238636" stroke="#ffffff" stroke-width="1.5" />
<text x="745.333" y="270.667" fill="#c9d1d9" font-size="11" font-family="sans-serif" font-weight="bold">27</text>
<circle cx="826.667" cy="266.667" r="9" fill="#238636" stroke="#ffffff" stroke-width="1.5" />
<text x="838.667" y="270.667" fill="#c9d1d9" font-size="11" font-family="sans-serif" font-weight="bold">28</text>
<circle cx="920" cy="266.667" r="9" fill="#238636" stroke="#ffffff" stroke-width="1.5" />
<text x="932" y="270.667" fill="#c9d1d9" font-size="11" font-family="sans-serif" font-weight="bold">29</text>
<circle cx="80" cy="360" r="9" fill="#238636" stroke="#ffffff" stroke-width="1.5" />
<text x="92" y="364" fill="#c9d1d9" font-size="11" font-family="sans-serif" font-weight="bold">30</text>
<circle cx="173.333" cy="360" r="9" fill="#238636" stroke="#ffffff" stroke-width="1.5" />
<text x="185.333" y="364" fill="#c9d1d9" font-size="11" font-family="sans-serif" font-weight="bold">31</text>
<circle cx="266.667" cy="360" r="9" fill="#238636" stroke="#ffffff" stroke-width="1.5" />
<text x="278.667" y="364" fill="#c9d1d9" font-size="11" font-family="sans-serif" font-weight="bold">32</text>
<circle cx="360" cy="360" r="9" fill="#238636" stroke="#ffffff" stroke-width="1.5" />
<text x="372" y="364" fill="#c9d1d9" font-size="11" font-family="sans-serif" font-weight="bold">33</text>
<circle cx="453.333" cy="360" r="9" fill="#238636" stroke="#ffffff" stroke-width="1.5" />
<text x="465.333" y="364" fill="#c9d1d9" font-size="11" font-family="sans-serif" font-weight="bold">34</text>
<circle cx="546.667" cy="360" r="9" fill="#238636" stroke="#ffffff" stroke-width="1.5" />
<text x="558.667" y="364" fill="#c9d1d9" font-size="11" font-family="sans-serif" font-weight="bold">35</text>
<circle cx="640" cy="360" r="9" fill="#238636" stroke="#ffffff" stroke-width="1.5" />
<text x="652" y="364" fill="#c9d1d9" font-size="11" font-family="sans-serif" font-weight="bold">36</text>
<circle cx="733.333" cy="360" r="9" fill="#238636" stroke="#ffffff" stroke-width="1.5" />
<text x="745.333" y="364" fill="#c9d1d9" font-size="11" font-family="sans-serif" font-weight="bold">37</text>
<circle cx="826.667" cy="360" r="9" fill="#238636" stroke="#ffffff" stroke-width="1.5" />
<text x="838.667" y="364" fill="#c9d1d9" font-size="11" font-family="sans-serif" font-weight="bold">38</text>
<circle cx="920" cy="360" r="9" fill="#238636" stroke="#ffffff" stroke-width="1.5" />
<text x="932" y="364" fill="#c9d1d9" font-size="11" font-family="sans-serif" font-weight="bold">39</text>
<circle cx="80" cy="453.333" r="9" fill="#238636" stroke="#ffffff" stroke-width="1.5" />
<text x="92" y="457.333" fill="#c9d1d9" font-size="11" font-family="sans-serif" font-weight="bold">40</text>
<circle cx="173.333" cy="453.333" r="9" fill="#238636" stroke="#ffffff" stroke-width="1.5" />
<text x="185.333" y="457.333" fill="#c9d1d9" font-size="11" font-family="sans-serif" font-weight="bold">41</text>
<circle cx="266.667" cy="453.333" r="9" fill="#238636" stroke="#ffffff" stroke-width="1.5" />
<text x="278.667" y="457.333" fill="#c9d1d9" font-size="11" font-family="sans-serif" font-weight="bold">42</text>
<circle cx="360" cy="453.333" r="9" fill="#238636" stroke="#ffffff" stroke-width="1.5" />
<text x="372" y="457.333" fill="#c9d1d9" font-size="11" font-family="sans-serif" font-weight="bold">43</text>
<circle cx="453.333" cy="453.333" r="9" fill="#238636" stroke="#ffffff" stroke-width="1.5" />
<text x="465.333" y="457.333" fill="#c9d1d9" font-size="11" font-family="sans-serif" font-weight="bold">44</text>
<circle cx="546.667" cy="453.333" r="9" fill="#238636" stroke="#ffffff" stroke-width="1.5" />
<text x="558.667" y="457.333" fill="#c9d1d9" font-size="11" font-family="sans-serif" font-weight="bold">45</text>
<circle cx="640" cy="453.333" r="9" fill="#238636" stroke="#ffffff" stroke-width="1.5" />
<text x="652" y="457.333" fill="#c9d1d9" font-size="11" font-family="sans-serif" font-weight="bold">46</text>
<circle cx="733.333" cy="453.333" r="9" fill="#238636" stroke="#ffffff" stroke-width="1.5" />
<text x="745.333" y="457.333" fill="#c9d1d9" font-size="11" font-family="sans-serif" font-weight="bold">47</text>
<circle cx="826.667" cy="453.333" r="9" fill="#238636" stroke="#ffffff" stroke-width="1.5" />
<text x="838.667" y="457.333" fill="#c9d1d9" font-size="11" font-family="sans-serif" font-weight="bold">48</text>
<circle cx="920" cy="453.333" r="9" fill="#238636" stroke="#ffffff" stroke-width="1.5" />
<text x="932" y="457.333" fill="#c9d1d9" font-size="11" font-family="sans-serif" font-weight="bold">49</text>
</svg>
