<svg xmlns="http://www.w3.org/2000/svg" width="1000" height="1000" style="background-color:#0d1117;">
<line x1="105" y1="69" x2="173" y2="77" stroke="#2f81f7" stroke-width="2.5" opacity="0.85" />
<line x1="173" y1="77" x2="283" y2="69" stroke="#2f81f7" stroke-width="2.5" opacity="0.85" />
<line x1="283" y1="69" x2="337" y2="84" stroke="#2f81f7" stroke-width="2.5" opacity="0.85" />
<line x1="337" y1="84" x2="435" y2="82" stroke="#2f81f7" stroke-width="2.5" opacity="0.85" />
<line x1="435" y1="82" x2="505" y2="72" stroke="#2f81f7" stroke-width="2.5" opacity="0.85" />
<line x1="505" y1="72" x2="587" y2="76" stroke="#2f81f7" stroke-width="2.5" opacity="0.85" />
<line x1="587" y1="76" x2="668" y2="89" stroke="#2f81f7" stroke-width="2.5" opacity="0.85" />
<line x1="668" y1="89" x2="725" y2="76" stroke="#2f81f7" stroke-width="2.5" opacity="0.85" />
<line x1="735" y1="245" x2="794" y2="81" stroke="#2f81f7" stroke-width="2.5" opacity="0.85" />
<line x1="105" y1="69" x2="98" y2="269" stroke="#2f81f7" stroke-width="2.5" opacity="0.85" />
<line x1="98" y1="269" x2="172" y2="252" stroke="#2f81f7" stroke-width="2.5" opacity="0.85" />
<line x1="283" y1="69" x2="266" y2="250" stroke="#2f81f7" stroke-width="2.5" opacity="0.85" />
<line x1="337" y1="84" x2="360" y2="277" stroke="#2f81f7" stroke-width="2.5" opacity="0.85" />
<line x1="435" y1="82" x2="430" y2="260" stroke="#2f81f7" stroke-width="2.5" opacity="0.85" />
<line x1="430" y1="260" x2="520" y2="273" stroke="#2f81f7" stroke-width="2.5" opacity="0.85" />
<line x1="505" y1="72" x2="595" y2="277" stroke="#2f81f7" stroke-width="2.5" opacity="0.85" />
<line x1="595" y1="277" x2="645" y2="260" stroke="#2f81f7" stroke-width="2.5" opacity="0.85" />
<line x1="645" y1="260" x2="735" y2="245" stroke="#2f81f7" stroke-width="2.5" opacity="0.85" />
<line x1="735" y1="245" x2="794" y2="249" stroke="#2f81f7" stroke-width="2.5" opacity="0.85" />
<line x1="98" y1="269" x2="100" y2="359" stroke="#2f81f7" stroke-width="2.5" opacity="0.85" />
<line x1="98" y1="269" x2="180" y2="362" stroke="#2f81f7" stroke-width="2.5" opacity="0.85" />
<line x1="180" y1="362" x2="257" y2="375" stroke="#2f81f7" stroke-width="2.5" opacity="0.85" />
<line x1="257" y1="375" x2="347" y2="350" stroke="#2f81f7" stroke-width="2.5" opacity="0.85" />
<line x1="347" y1="350" x2="415" y2="348" stroke="#2f81f7" stroke-width="2.5" opacity="0.85" />
<line x1="415" y1="348" x2="503" y2="372" stroke="#2f81f7" stroke-width="2.5" opacity="0.85" />
<line x1="520" y1="273" x2="594" y2="366" stroke="#2f81f7" stroke-width="2.5" opacity="0.85" />
<line x1="645" y1="260" x2="646" y2="349" stroke="#2f81f7" stroke-width="2.5" opacity="0.85" />
<line x1="646" y1="349" x2="730" y2="348" stroke="#2f81f7" stroke-width="2.5" opacity="0.85" />
<line x1="730" y1="348" x2="817" y2="350" stroke="#2f81f7" stroke-width="2.5" opacity="0.85" />
<line x1="100" y1="359" x2="99" y2="530" stroke="#2f81f7" stroke-width="2.5" opacity="0.85" />
<line x1="180" y1="362" x2="173" y2="545" stroke="#2f81f7" stroke-width="2.5" opacity="0.85" />
<line x1="173" y1="545" x2="283" y2="530" stroke="#2f81f7" stroke-width="2.5" opacity="0.85" />
<line x1="283" y1="530" x2="340" y2="547" stroke="#2f81f7" stroke-width="2.5" opacity="0.85" />
<line x1="339" y1="633" x2="418" y2="546" stroke="#2f81f7" stroke-width="2.5" opacity="0.85" />
<line x1="418" y1="546" x2="516" y2="552" stroke="#2f81f7" stroke-width="2.5" opacity="0.85" />
<line x1="516" y1="552" x2="578" y2="550" stroke="#2f81f7" stroke-width="2.5" opacity="0.85" />
<line x1="646" y1="349" x2="651" y2="529" stroke="#2f81f7" stroke-width="2.5" opacity="0.85" />
<line x1="651" y1="529" x2="739" y2="539" stroke="#2f81f7" stroke-width="2.5" opacity="0.85" />
<line x1="739" y1="539" x2="816" y2="545" stroke="#2f81f7" stroke-width="2.5" opacity="0.85" />
<line x1="99" y1="530" x2="85" y2="640" stroke="#2f81f7" stroke-width="2.5" opacity="0.85" />
<line x1="99" y1="530" x2="197" y2="630" stroke="#2f81f7" stroke-width="2.5" opacity="0.85" />
<line x1="283" y1="530" x2="278" y2="641" stroke="#2f81f7" stroke-width="2.5" opacity="0.85" />
<line x1="340" y1="547" x2="339" y2="633" stroke="#2f81f7" stroke-width="2.5" opacity="0.85" />
<line x1="339" y1="633" x2="420" y2="631" stroke="#2f81f7" stroke-width="2.5" opacity="0.85" />
<line x1="420" y1="631" x2="498" y2="649" stroke="#2f81f7" stroke-width="2.5" opacity="0.85" />
<line x1="516" y1="552" x2="581" y2="637" stroke="#2f81f7" stroke-width="2.5" opacity="0.85" />
<line x1="651" y1="529" x2="667" y2="656" stroke="#2f81f7" stroke-width="2.5" opacity="0.85" />
<line x1="739" y1="539" x2="721" y2="633" stroke="#2f81f7" stroke-width="2.5" opacity="0.85" />
<line x1="721" y1="633" x2="799" y2="639" stroke="#2f81f7" stroke-width="2.5" opacity="0.85" />
<circle cx="105" cy="69" r="9" fill="#d29922" stroke="#ffffff" stroke-width="1.5" />
<text x="117" y="73" fill="#c9d1d9" font-size="11" font-family="sans-serif" font-weight="bold">0</text>
<circle cx="173" cy="77" r="9" fill="#238636" stroke="#ffffff" stroke-width="1.5" />
<text x="185" y="81" fill="#c9d1d9" font-size="11" font-family="sans-serif" font-weight="bold">1</text>
<circle cx="283" cy="69" r="9" fill="#238636" stroke="#ffffff" stroke-width="1.5" />
<text x="295" y="73" fill="#c9d1d9" font-size="11" font-family="sans-serif" font-weight="bold">2</text>
<circle cx="337" cy="84" r="9" fill="#238636" stroke="#ffffff" stroke-width="1.5" />
<text x="349" y="88" fill="#c9d1d9" font-size="11" font-family="sans-serif" font-weight="bold">3</text>
<circle cx="435" cy="82" r="9" fill="#238636" stroke="#ffffff" stroke-width="1.5" />
<text x="447" y="86" fill="#c9d1d9" font-size="11" font-family="sans-serif" font-weight="bold">4</text>
<circle cx="505" cy="72" r="9" fill="#238636" stroke="#ffffff" stroke-width="1.5" />
<text x="517" y="76" fill="#c9d1d9" font-size="11" font-family="sans-serif" font-weight="bold">5</text>
<circle cx="587" cy="76" r="9" fill="#238636" stroke="#ffffff" stroke-width="1.5" />
<text x="599" y="80" fill="#c9d1d9" font-size="11" font-family="sans-serif" font-weight="bold">6</text>
<circle cx="668" cy="89" r="9" fill="#238636" stroke="#ffffff" stroke-width="1.5" />
<text x="680" y="93" fill="#c9d1d9" font-size="11" font-family="sans-serif" font-weight="bold">7</text>
<circle cx="725" cy="76" r="9" fill="#238636" stroke="#ffffff" stroke-width="1.5" />
<text x="737" y="80" fill="#c9d1d9" font-size="11" font-family="sans-serif" font-weight="bold">8</text>
<circle cx="794" cy="81" r="9" fill="#238636" stroke="#ffffff" stroke-width="1.5" />
<text x="806" y="85" fill="#c9d1d9" font-size="11" font-family="sans-serif" font-weight="bold">9</text>
<circle cx="98" cy="269" r="9" fill="#238636" stroke="#ffffff" stroke-width="1.5" />
<text x="110" y="273" fill="#c9d1d9" font-size="11" font-family="sans-serif" font-weight="bold">10</text>
<circle cx="172" cy="252" r="9" fill="#238636" stroke="#ffffff" stroke-width="1.5" />
<text x="184" y="256" fill="#c9d1d9" font-size="11" font-family="sans-serif" font-weight="bold">11</text>
<circle cx="266" cy="250" r="9" fill="#238636" stroke="#ffffff" stroke-width="1.5" />
<text x="278" y="254" fill="#c9d1d9" font-size="11" font-family="sans-serif" font-weight="bold">12</text>
<circle cx="360" cy="277" r="9" fill="#238636" stroke="#ffffff" stroke-width="1.5" />
<text x="372" y="281" fill="#c9d1d9" font-size="11" font-family="sans-serif" font-weight="bold">13</text>
<circle cx="430" cy="260" r="9" fill="#238636" stroke="#ffffff" stroke-width="1.5" />
<text x="442" y="264" fill="#c9d1d9" font-size="11" font-family="sans-serif" font-weight="bold">14</text>
<circle cx="520" cy="273" r="9" fill="#238636" stroke="#ffffff" stroke-width="1.5" />
<text x="532" y="277" fill="#c9d1d9" font-size="11" font-family="sans-serif" font-weight="bold">15</text>
<circle cx="595" cy="277" r="9" fill="#238636" stroke="#ffffff" stroke-width="1.5" />
<text x="607" y="281" fill="#c9d1d9" font-size="11" font-family="sans-serif" font-weight="bold">16</text>
<circle cx="645" cy="260" r="9" fill="#238636" stroke="#ffffff" stroke-width="1.5" />
<text x="657" y="264" fill="#c9d1d9" font-size="11" font-family="sans-serif" font-weight="bold">17</text>
<circle cx="735" cy="245" r="9" fill="#238636" stroke="#ffffff" stroke-width="1.5" />
<text x="747" y="249" fill="#c9d1d9" font-size="11" font-family="sans-serif" font-weight="bold">18</text>
<circle cx="794" cy="249" r="9" fill="#238636" stroke="#ffffff" stroke-width="1.5" />
<text x="806" y="253" fill="#c9d1d9" font-size="11" font-family="sans-serif" font-weight="bold">19</text>
<circle cx="100" cy="359" r="9" fill="#238636" stroke="#ffffff" stroke-width="1.5" />
<text x="112" y="363" fill="#c9d1d9" font-size="11" font-family="sans-serif" font-weight="bold">20</text>
<circle cx="180" cy="362" r="9" fill="#238636" stroke="#ffffff" stroke-width="1.5" />
<text x="192" y="366" fill="#c9d1d9" font-size="11" font-family="sans-serif" font-weight="bold">21</text>
<circle cx="257" cy="375" r="9" fill="#238636" stroke="#ffffff" stroke-width="1.5" />
<text x="269" y="379" fill="#c9d1d9" font-size="11" font-family="sans-serif" font-weight="bold">22</text>
<circle cx="347" cy="350" r="9" fill="#238636" stroke="#ffffff" stroke-width="1.5" />
<text x="359" y="354" fill="#c9d1d9" font-size="11" font-family="sans-serif" font-weight="bold">23</text>
<circle cx="415" cy="348" r="9" fill="#238636" stroke="#ffffff" stroke-width="1.5" />
<text x="427" y="352" fill="#c9d1d9" font-size="11" font-family="sans-serif" font-weight="bold">24</text>
<circle cx="503" cy="372" r="9" fill="#238636" stroke="#ffffff" stroke-width="1.5" />
<text x="515" y="376" fill="#c9d1d9" font-size="11" font-family="sans-serif" font-weight="bold">25</text>
<circle cx="594" cy="366" r="9" fill="#238636" stroke="#ffffff" stroke-width="1.5" />
<text x="606" y="370" fill="#c9d1d9" font-size="11" font-family="sans-serif" font-weight="bold">26</text>
<circle cx="646" cy="349" r="9" fill="#238636" stroke="#ffffff" stroke-width="1.5" />
<text x="658" y="353" fill="#c9d1d9" font-size="11" font-family="sans-serif" font-weight="bold">27</text>
<circle cx="730" cy="348" r="9" fill="#238636" stroke="#ffffff" stroke-width="1.5" />
<text x="742" y="352" fill="#c9d1d9" font-size="11" font-family="sans-serif" font-weight="bold">28</text>
<circle cx="817" cy="350" r="9" fill="#238636" stroke="#ffffff" stroke-width="1.5" />
<text x="829" y="354" fill="#c9d1d9" font-size="11" font-family="sans-serif" font-weight="bold">29</text>
<circle cx="99" cy="530" r="9" fill="#238636" stroke="#ffffff" stroke-width="1.5" />
<text x="111" y="534" fill="#c9d1d9" font-size="11" font-family="sans-serif" font-weight="bold">30</text>
<circle cx="173" cy="545" r="9" fill="#238636" stroke="#ffffff" stroke-width="1.5" />
<text x="185" y="549" fill="#c9d1d9" font-size="11" font-family="sans-serif" font-weight="bold">31</text>
<circle cx="283" cy="530" r="9" fill="#238636" stroke="#ffffff" stroke-width="1.5" />
<text x="295" y="534" fill="#c9d1d9" font-size="11" font-family="sans-serif" font-weight="bold">32</text>
<circle cx="340" cy="547" r="9" fill="#238636" stroke="#ffffff" stroke-width="1.5" />
<text x="352" y="551" fill="#c9d1d9" font-size="11" font-family="sans-serif" font-weight="bold">33</text>
<circle cx="418" cy="546" r="9" fill="#238636" stroke="#ffffff" stroke-width="1.5" />
<text x="430" y="550" fill="#c9d1d9" font-size="11" font-family="sans-serif" font-weight="bold">34</text>
<circle cx="516" cy="552" r="9" fill="#238636" stroke="#ffffff" stroke-width="1.5" />
<text x="528" y="556" fill="#c9d1d9" font-size="11" font-family="sans-serif" font-weight="bold">35</text>
<circle cx="578" cy="550" r="9" fill="#238636" stroke="#ffffff" stroke-width="1.5" />
<text x="590" y="554" fill="#c9d1d9" font-size="11" font-family="sans-serif" font-weight="bold">36</text>
<circle cx="651" cy="529" r="9" fill="#238636" stroke="#ffffff" stroke-width="1.5" />
<text x="663" y="533" fill="#c9d1d9" font-size="11" font-family="sans-serif" font-weight="bold">37</text>
<circle cx="739" cy="539" r="9" fill="#238636" stroke="#ffffff" stroke-width="1.5" />
<text x="751" y="543" fill="#c9d1d9" font-size="11" font-family="sans-serif" font-weight="bold">38</text>
<circle cx="816" cy="545" r="9" fill="#238636" stroke="#ffffff" stroke-width="1.5" />
<text x="828" y="549" fill="#c9d1d9" font-size="11" font-family="sans-serif" font-weight="bold">39</text>
<circle cx="85" cy="640" r="9" fill="#238636" stroke="#ffffff" stroke-width="1.5" />
<text x="97" y="644" fill="#c9d1d9" font-size="11" font-family="sans-serif" font-weight="bold">40</text>
<circle cx="197" cy="630" r="9" fill="#238636" stroke="#ffffff" stroke-width="1.5" />
<text x="209" y="634" fill="#c9d1d9" font-size="11" font-family="sans-serif" font-weight="bold">41</text>
<circle cx="278" cy="641" r="9" fill="#238636" stroke="#ffffff" stroke-width="1.5" />
<text x="290" y="645" fill="#c9d1d9" font-size="11" font-family="sans-serif" font-weight="bold">42</text>
<circle cx="339" cy="633" r="9" fill="#238636" stroke="#ffffff" stroke-width="1.5" />
<text x="351" y="637" fill="#c9d1d9" font-size="11" font-family="sans-serif" font-weight="bold">43</text>
<circle cx="420" cy="631" r="9" fill="#238636" stroke="#ffffff" stroke-width="1.5" />
<text x="432" y="635" fill="#c9d1d9" font-size="11" font-family="sans-serif" font-weight="bold">44</text>
<circle cx="498" cy="649" r="9" fill="#238636" stroke="#ffffff" stroke-width="1.5" />
<text x="510" y="653" fill="#c9d1d9" font-size="11" font-family="sans-serif" font-weight="bold">45</text>
<circle cx="581" cy="637" r="9" fill="#238636" stroke="#ffffff" stroke-width="1.5" />
<text x="593" y="641" fill="#c9d1d9" font-size="11" font-family="sans-serif" font-weight="bold">46</text>
<circle cx="667" cy="656" r="9" fill="#238636" stroke="#ffffff" stroke-width="1.5" />
<text x="679" y="660" fill="#c9d1d9" font-size="11" font-family="sans-serif" font-weight="bold">47</text>
<circle cx="721" cy="633" r="9" fill="#238636" stroke="#ffffff" stroke-width="1.5" />
<text x="733" y="637" fill="#c9d1d9" font-size="11" font-family="sans-serif" font-weight="bold">48</text>
<circle cx="799" cy="639" r="9" fill="#238636" stroke="#ffffff" stroke-width="1.5" />
<text x="811" y="643" fill="#c9d1d9" font-size="11" font-family="sans-serif" font-weight="bold">49</text>
</svg>
