<svg xmlns="http://www.w3.org/2000/svg" width="1000" height="1000" style="background-color:#0d1117;">
<line x1="92" y1="86" x2="170" y2="60" stroke="#2f81f7" stroke-width="2.5" opacity="0.85" />
<line x1="170" y1="60" x2="274" y2="74" stroke="#2f81f7" stroke-width="2.5" opacity="0.85" />
<line x1="274" y1="74" x2="365" y2="83" stroke="#2f81f7" stroke-width="2.5" opacity="0.85" />
<line x1="365" y1="83" x2="416" y2="78" stroke="#2f81f7" stroke-width="2.5" opacity="0.85" />
<line x1="416" y1="78" x2="499" y2="90" stroke="#2f81f7" stroke-width="2.5" opacity="0.85" />
<line x1="499" y1="90" x2="589" y2="90" stroke="#2f81f7" stroke-width="2.5" opacity="0.85" />
<line x1="589" y1="90" x2="670" y2="90" stroke="#2f81f7" stroke-width="2.5" opacity="0.85" />
<line x1="670" y1="90" x2="726" y2="94" stroke="#2f81f7" stroke-width="2.5" opacity="0.85" />
<line x1="728" y1="251" x2="803" y2="90" stroke="#2f81f7" stroke-width="2.5" opacity="0.85" />
<line x1="92" y1="86" x2="87" y2="271" stroke="#2f81f7" stroke-width="2.5" opacity="0.85" />
<line x1="92" y1="86" x2="189" y2="245" stroke="#2f81f7" stroke-width="2.5" opacity="0.85" />
<line x1="274" y1="74" x2="263" y2="261" stroke="#2f81f7" stroke-width="2.5" opacity="0.85" />
<line x1="263" y1="261" x2="341" y2="271" stroke="#2f81f7" stroke-width="2.5" opacity="0.85" />
<line x1="416" y1="78" x2="418" y2="265" stroke="#2f81f7" stroke-width="2.5" opacity="0.85" />
<line x1="418" y1="265" x2="515" y2="249" stroke="#2f81f7" stroke-width="2.5" opacity="0.85" />
<line x1="515" y1="249" x2="576" y2="255" stroke="#2f81f7" stroke-width="2.5" opacity="0.85" />
<line x1="576" y1="255" x2="667" y2="255" stroke="#2f81f7" stroke-width="2.5" opacity="0.85" />
<line x1="667" y1="255" x2="728" y2="251" stroke="#2f81f7" stroke-width="2.5" opacity="0.85" />
<line x1="745" y1="362" x2="808" y2="259" stroke="#2f81f7" stroke-width="2.5" opacity="0.85" />
<line x1="87" y1="271" x2="102" y2="352" stroke="#2f81f7" stroke-width="2.5" opacity="0.85" />
<line x1="87" y1="271" x2="179" y2="353" stroke="#2f81f7" stroke-width="2.5" opacity="0.85" />
<line x1="179" y1="353" x2="259" y2="347" stroke="#2f81f7" stroke-width="2.5" opacity="0.85" />
<line x1="259" y1="347" x2="357" y2="358" stroke="#2f81f7" stroke-width="2.5" opacity="0.85" />
<line x1="418" y1="265" x2="438" y2="361" stroke="#2f81f7" stroke-width="2.5" opacity="0.85" />
<line x1="438" y1="361" x2="500" y2="346" stroke="#2f81f7" stroke-width="2.5" opacity="0.85" />
<line x1="515" y1="249" x2="588" y2="363" stroke="#2f81f7" stroke-width="2.5" opacity="0.85" />
<line x1="667" y1="255" x2="658" y2="369" stroke="#2f81f7" stroke-width="2.5" opacity="0.85" />
<line x1="658" y1="369" x2="745" y2="362" stroke="#2f81f7" stroke-width="2.5" opacity="0.85" />
<line x1="745" y1="362" x2="817" y2="357" stroke="#2f81f7" stroke-width="2.5" opacity="0.85" />
<line x1="102" y1="352" x2="89" y2="530" stroke="#2f81f7" stroke-width="2.5" opacity="0.85" />
<line x1="89" y1="530" x2="182" y2="540" stroke="#2f81f7" stroke-width="2.5" opacity="0.85" />
<line x1="182" y1="540" x2="255" y2="544" stroke="#2f81f7" stroke-width="2.5" opacity="0.85" />
<line x1="255" y1="544" x2="358" y2="526" stroke="#2f81f7" stroke-width="2.5" opacity="0.85" />
<line x1="358" y1="526" x2="437" y2="532" stroke="#2f81f7" stroke-width="2.5" opacity="0.85" />
<line x1="437" y1="532" x2="519" y2="539" stroke="#2f81f7" stroke-width="2.5" opacity="0.85" />
<line x1="519" y1="539" x2="584" y2="540" stroke="#2f81f7" stroke-width="2.5" opacity="0.85" />
<line x1="658" y1="369" x2="669" y2="531" stroke="#2f81f7" stroke-width="2.5" opacity="0.85" />
<line x1="669" y1="531" x2="730" y2="551" stroke="#2f81f7" stroke-width="2.5" opacity="0.85" />
<line x1="730" y1="551" x2="808" y2="531" stroke="#2f81f7" stroke-width="2.5" opacity="0.85" />
<line x1="89" y1="530" x2="85" y2="629" stroke="#2f81f7" stroke-width="2.5" opacity="0.85" />
<line x1="89" y1="530" x2="175" y2="636" stroke="#2f81f7" stroke-width="2.5" opacity="0.85" />
<line x1="175" y1="636" x2="261" y2="642" stroke="#2f81f7" stroke-width="2.5" opacity="0.85" />
<line x1="358" y1="526" x2="353" y2="654" stroke="#2f81f7" stroke-width="2.5" opacity="0.85" />
<line x1="353" y1="654" x2="436" y2="653" stroke="#2f81f7" stroke-width="2.5" opacity="0.85" />
<line x1="436" y1="653" x2="496" y2="632" stroke="#2f81f7" stroke-width="2.5" opacity="0.85" />
<line x1="584" y1="540" x2="596" y2="626" stroke="#2f81f7" stroke-width="2.5" opacity="0.85" />
<line x1="669" y1="531" x2="649" y2="651" stroke="#2f81f7" stroke-width="2.5" opacity="0.85" />
<line x1="730" y1="551" x2="739" y2="651" stroke="#2f81f7" stroke-width="2.5" opacity="0.85" />
<line x1="739" y1="651" x2="794" y2="655" stroke="#2f81f7" stroke-width="2.5" opacity="0.85" />
<circle cx="92" cy="86" r="9" fill="#d29922" stroke="#ffffff" stroke-width="1.5" />
<text x="104" y="90" fill="#c9d1d9" font-size="11" font-family="sans-serif" font-weight="bold">0</text>
<circle cx="170" cy="60" r="9" fill="#238636" stroke="#ffffff" stroke-width="1.5" />
<text x="182" y="64" fill="#c9d1d9" font-size="11" font-family="sans-serif" font-weight="bold">1</text>
<circle cx="274" cy="74" r="9" fill="#238636" stroke="#ffffff" stroke-width="1.5" />
<text x="286" y="78" fill="#c9d1d9" font-size="11" font-family="sans-serif" font-weight="bold">2</text>
<circle cx="365" cy="83" r="9" fill="#238636" stroke="#ffffff" stroke-width="1.5" />
<text x="377" y="87" fill="#c9d1d9" font-size="11" font-family="sans-serif" font-weight="bold">3</text>
<circle cx="416" cy="78" r="9" fill="#238636" stroke="#ffffff" stroke-width="1.5" />
<text x="428" y="82" fill="#c9d1d9" font-size="11" font-family="sans-serif" font-weight="bold">4</text>
<circle cx="499" cy="90" r="9" fill="#238636" stroke="#ffffff" stroke-width="1.5" />
<text x="511" y="94" fill="#c9d1d9" font-size="11" font-family="sans-serif" font-weight="bold">5</text>
<circle cx="589" cy="90" r="9" fill="#238636" stroke="#ffffff" stroke-width="1.5" />
<text x="601" y="94" fill="#c9d1d9" font-size="11" font-family="sans-serif" font-weight="bold">6</text>
<circle cx="670" cy="90" r="9" fill="#238636" stroke="#ffffff" stroke-width="1.5" />
<text x="682" y="94" fill="#c9d1d9" font-size="11" font-family="sans-serif" font-weight="bold">7</text>
<circle cx="726" cy="94" r="9" fill="#238636" stroke="#ffffff" stroke-width="1.5" />
<text x="738" y="98" fill="#c9d1d9" font-size="11" font-family="sans-serif" font-weight="bold">8</text>
<circle cx="803" cy="90" r="9" fill="#238636" stroke="#ffffff" stroke-width="1.5" />
<text x="815" y="94" fill="#c9d1d9" font-size="11" font-family="sans-serif" font-weight="bold">9</text>
<circle cx="87" cy="271" r="9" fill="#238636" stroke="#ffffff" stroke-width="1.5" />
<text x="99" y="275" fill="#c9d1d9" font-size="11" font-family="sans-serif" font-weight="bold">10</text>
<circle cx="189" cy="245" r="9" fill="#238636" stroke="#ffffff" stroke-width="1.5" />
<text x="201" y="249" fill="#c9d1d9" font-size="11" font-family="sans-serif" font-weight="bold">11</text>
<circle cx="263" cy="261" r="9" fill="#238636" stroke="#ffffff" stroke-width="1.5" />
<text x="275" y="265" fill="#c9d1d9" font-size="11" font-family="sans-serif" font-weight="bold">12</text>
<circle cx="341" cy="271" r="9" fill="#238636" stroke="#ffffff" stroke-width="1.5" />
<text x="353" y="275" fill="#c9d1d9" font-size="11" font-family="sans-serif" font-weight="bold">13</text>
<circle cx="418" cy="265" r="9" fill="#238636" stroke="#ffffff" stroke-width="1.5" />
<text x="430" y="269" fill="#c9d1d9" font-size="11" font-family="sans-serif" font-weight="bold">14</text>
<circle cx="515" cy="249" r="9" fill="#238636" stroke="#ffffff" stroke-width="1.5" />
<text x="527" y="253" fill="#c9d1d9" font-size="11" font-family="sans-serif" font-weight="bold">15</text>
<circle cx="576" cy="255" r="9" fill="#238636" stroke="#ffffff" stroke-width="1.5" />
<text x="588" y="259" fill="#c9d1d9" font-size="11" font-family="sans-serif" font-weight="bold">16</text>
<circle cx="667" cy="255" r="9" fill="#238636" stroke="#ffffff" stroke-width="1.5" />
<text x="679" y="259" fill="#c9d1d9" font-size="11" font-family="sans-serif" font-weight="bold">17</text>
<circle cx="728" cy="251" r="9" fill="#238636" stroke="#ffffff" stroke-width="1.5" />
<text x="740" y="255" fill="#c9d1d9" font-size="11" font-family="sans-serif" font-weight="bold">18</text>
<circle cx="808" cy="259" r="9" fill="#238636" stroke="#ffffff" stroke-width="1.5" />
<text x="820" y="263" fill="#c9d1d9" font-size="11" font-family="sans-serif" font-weight="bold">19</text>
<circle cx="102" cy="352" r="9" fill="#238636" stroke="#ffffff" stroke-width="1.5" />
<text x="114" y="356" fill="#c9d1d9" font-size="11" font-family="sans-serif" font-weight="bold">20</text>
<circle cx="179" cy="353" r="9" fill="#238636" stroke="#ffffff" stroke-width="1.5" />
<text x="191" y="357" fill="#c9d1d9" font-size="11" font-family="sans-serif" font-weight="bold">21</text>
<circle cx="259" cy="347" r="9" fill="#238636" stroke="#ffffff" stroke-width="1.5" />
<text x="271" y="351" fill="#c9d1d9" font-size="11" font-family="sans-serif" font-weight="bold">22</text>
<circle cx="357" cy="358" r="9" fill="#238636" stroke="#ffffff" stroke-width="1.5" />
<text x="369" y="362" fill="#c9d1d9" font-size="11" font-family="sans-serif" font-weight="bold">23</text>
<circle cx="438" cy="361" r="9" fill="#238636" stroke="#ffffff" stroke-width="1.5" />
<text x="450" y="365" fill="#c9d1d9" font-size="11" font-family="sans-serif" font-weight="bold">24</text>
<circle cx="500" cy="346" r="9" fill="#238636" stroke="#ffffff" stroke-width="1.5" />
<text x="512" y="350" fill="#c9d1d9" font-size="11" font-family="sans-serif" font-weight="bold">25</text>
<circle cx="588" cy="363" r="9" fill="#238636" stroke="#ffffff" stroke-width="1.5" />
<text x="600" y="367" fill="#c9d1d9" font-size="11" font-family="sans-serif" font-weight="bold">26</text>
<circle cx="658" cy="369" r="9" fill="#238636" stroke="#ffffff" stroke-width="1.5" />
<text x="670" y="373" fill="#c9d1d9" font-size="11" font-family="sans-serif" font-weight="bold">27</text>
<circle cx="745" cy="362" r="9" fill="#238636" stroke="#ffffff" stroke-width="1.5" />
<text x="757" y="366" fill="#c9d1d9" font-size="11" font-family="sans-serif" font-weight="bold">28</text>
<circle cx="817" cy="357" r="9" fill="#238636" stroke="#ffffff" stroke-width="1.5" />
<text x="829" y="361" fill="#c9d1d9" font-size="11" font-family="sans-serif" font-weight="bold">29</text>
<circle cx="89" cy="530" r="9" fill="#238636" stroke="#ffffff" stroke-width="1.5" />
<text x="101" y="534" fill="#c9d1d9" font-size="11" font-family="sans-serif" font-weight="bold">30</text>
<circle cx="182" cy="540" r="9" fill="#238636" stroke="#ffffff" stroke-width="1.5" />
<text x="194" y="544" fill="#c9d1d9" font-size="11" font-family="sans-serif" font-weight="bold">31</text>
<circle cx="255" cy="544" r="9" fill="#238636" stroke="#ffffff" stroke-width="1.5" />
<text x="267" y="548" fill="#c9d1d9" font-size="11" font-family="sans-serif" font-weight="bold">32</text>
<circle cx="358" cy="526" r="9" fill="#238636" stroke="#ffffff" stroke-width="1.5" />
<text x="370" y="530" fill="#c9d1d9" font-size="11" font-family="sans-serif" font-weight="bold">33</text>
<circle cx="437" cy="532" r="9" fill="#238636" stroke="#ffffff" stroke-width="1.5" />
<text x="449" y="536" fill="#c9d1d9" font-size="11" font-family="sans-serif" font-weight="bold">34</text>
<circle cx="519" cy="539" r="9" fill="#238636" stroke="#ffffff" stroke-width="1.5" />
<text x="531" y="543" fill="#c9d1d9" font-size="11" font-family="sans-serif" font-weight="bold">35</text>
<circle cx="584" cy="540" r="9" fill="#238636" stroke="#ffffff" stroke-width="1.5" />
<text x="596" y="544" fill="#c9d1d9" font-size="11" font-family="sans-serif" font-weight="bold">36</text>
<circle cx="669" cy="531" r="9" fill="#238636" stroke="#ffffff" stroke-width="1.5" />
<text x="681" y="535" fill="#c9d1d9" font-size="11" font-family="sans-serif" font-weight="bold">37</text>
<circle cx="730" cy="551" r="9" fill="#238636" stroke="#ffffff" stroke-width="1.5" />
<text x="742" y="555" fill="#c9d1d9" font-size="11" font-family="sans-serif" font-weight="bold">38</text>
<circle cx="808" cy="531" r="9" fill="#238636" stroke="#ffffff" stroke-width="1.5" />
<text x="820" y="535" fill="#c9d1d9" font-size="11" font-family="sans-serif" font-weight="bold">39</text>
<circle cx="85" cy="629" r="9" fill="#238636" stroke="#ffffff" stroke-width="1.5" />
<text x="97" y="633" fill="#c9d1d9" font-size="11" font-family="sans-serif" font-weight="bold">40</text>
<circle cx="175" cy="636" r="9" fill="#238636" stroke="#ffffff" stroke-width="1.5" />
<text x="187" y="640" fill="#c9d1d9" font-size="11" font-family="sans-serif" font-weight="bold">41</text>
<circle cx="261" cy="642" r="9" fill="#238636" stroke="#ffffff" stroke-width="1.5" />
<text x="273" y="646" fill="#c9d1d9" font-size="11" font-family="sans-serif" font-weight="bold">42</text>
<circle cx="353" cy="654" r="9" fill="#238636" stroke="#ffffff" stroke-width="1.5" />
<text x="365" y="658" fill="#c9d1d9" font-size="11" font-family="sans-serif" font-weight="bold">43</text>
<circle cx="436" cy="653" r="9" fill="#238636" stroke="#ffffff" stroke-width="1.5" />
<text x="448" y="657" fill="#c9d1d9" font-size="11" font-family="sans-serif" font-weight="bold">44</text>
<circle cx="496" cy="632" r="9" fill="#238636" stroke="#ffffff" stroke-width="1.5" />
<text x="508" y="636" fill="#c9d1d9" font-size="11" font-family="sans-serif" font-weight="bold">45</text>
<circle cx="596" cy="626" r="9" fill="#238636" stroke="#ffffff" stroke-width="1.5" />
<text x="608" y="630" fill="#c9d1d9" font-size="11" font-family="sans-serif" font-weight="bold">46</text>
<circle cx="649" cy="651" r="9" fill="#238636" stroke="#ffffff" stroke-width="1.5" />
<text x="661" y="655" fill="#c9d1d9" font-size="11" font-family="sans-serif" font-weight="bold">47</text>
<circle cx="739" cy="651" r="9" fill="#238636" stroke="#ffffff" stroke-width="1.5" />
<text x="751" y="655" fill="#c9d1d9" font-size="11" font-family="sans-serif" font-weight="bold">48</text>
<circle cx="794" cy="655" r="9" fill="#238636" stroke="#ffffff" stroke-width="1.5" />
<text x="806" y="659" fill="#c9d1d9" font-size="11" font-family="sans-serif" font-weight="bold">49</text>
</svg>
