<svg xmlns="http://www.w3.org/2000/svg" width="1000" height="1000" style="background-color:#0d1117;">
<line x1="114" y1="70" x2="183" y2="67" stroke="#2f81f7" stroke-width="2.5" opacity="0.85" />
<line x1="183" y1="67" x2="260" y2="67" stroke="#2f81f7" stroke-width="2.5" opacity="0.85" />
<line x1="260" y1="67" x2="357" y2="77" stroke="#2f81f7" stroke-width="2.5" opacity="0.85" />
<line x1="357" y1="77" x2="439" y2="75" stroke="#2f81f7" stroke-width="2.5" opacity="0.85" />
<line x1="439" y1="75" x2="511" y2="89" stroke="#2f81f7" stroke-width="2.5" opacity="0.85" />
<line x1="511" y1="89" x2="575" y2="91" stroke="#2f81f7" stroke-width="2.5" opacity="0.85" />
<line x1="575" y1="91" x2="645" y2="99" stroke="#2f81f7" stroke-width="2.5" opacity="0.85" />
<line x1="645" y1="99" x2="722" y2="78" stroke="#2f81f7" stroke-width="2.5" opacity="0.85" />
<line x1="724" y1="256" x2="816" y2="82" stroke="#2f81f7" stroke-width="2.5" opacity="0.85" />
<line x1="114" y1="70" x2="87" y2="254" stroke="#2f81f7" stroke-width="2.5" opacity="0.85" />
<line x1="114" y1="70" x2="172" y2="254" stroke="#2f81f7" stroke-width="2.5" opacity="0.85" />
<line x1="260" y1="67" x2="267" y2="242" stroke="#2f81f7" stroke-width="2.5" opacity="0.85" />
<line x1="267" y1="242" x2="340" y2="253" stroke="#2f81f7" stroke-width="2.5" opacity="0.85" />
<line x1="439" y1="75" x2="416" y2="270" stroke="#2f81f7" stroke-width="2.5" opacity="0.85" />
<line x1="416" y1="270" x2="497" y2="253" stroke="#2f81f7" stroke-width="2.5" opacity="0.85" />
<line x1="511" y1="89" x2="581" y2="254" stroke="#2f81f7" stroke-width="2.5" opacity="0.85" />
<line x1="645" y1="99" x2="658" y2="276" stroke="#2f81f7" stroke-width="2.5" opacity="0.85" />
<line x1="658" y1="276" x2="724" y2="256" stroke="#2f81f7" stroke-width="2.5" opacity="0.85" />
<line x1="743" y1="357" x2="812" y2="241" stroke="#2f81f7" stroke-width="2.5" opacity="0.85" />
<line x1="87" y1="254" x2="115" y2="359" stroke="#2f81f7" stroke-width="2.5" opacity="0.85" />
<line x1="115" y1="359" x2="172" y2="379" stroke="#2f81f7" stroke-width="2.5" opacity="0.85" />
<line x1="172" y1="379" x2="281" y2="345" stroke="#2f81f7" stroke-width="2.5" opacity="0.85" />
<line x1="281" y1="345" x2="359" y2="369" stroke="#2f81f7" stroke-width="2.5" opacity="0.85" />
<line x1="359" y1="369" x2="435" y2="379" stroke="#2f81f7" stroke-width="2.5" opacity="0.85" />
<line x1="435" y1="379" x2="502" y2="353" stroke="#2f81f7" stroke-width="2.5" opacity="0.85" />
<line x1="497" y1="253" x2="566" y2="363" stroke="#2f81f7" stroke-width="2.5" opacity="0.85" />
<line x1="658" y1="276" x2="643" y2="366" stroke="#2f81f7" stroke-width="2.5" opacity="0.85" />
<line x1="643" y1="366" x2="743" y2="357" stroke="#2f81f7" stroke-width="2.5" opacity="0.85" />
<line x1="743" y1="357" x2="810" y2="378" stroke="#2f81f7" stroke-width="2.5" opacity="0.85" />
<line x1="115" y1="359" x2="111" y2="538" stroke="#2f81f7" stroke-width="2.5" opacity="0.85" />
<line x1="115" y1="359" x2="196" y2="557" stroke="#2f81f7" stroke-width="2.5" opacity="0.85" />
<line x1="281" y1="345" x2="262" y2="537" stroke="#2f81f7" stroke-width="2.5" opacity="0.85" />
<line x1="262" y1="537" x2="355" y2="542" stroke="#2f81f7" stroke-width="2.5" opacity="0.85" />
<line x1="355" y1="542" x2="422" y2="549" stroke="#2f81f7" stroke-width="2.5" opacity="0.85" />
<line x1="502" y1="353" x2="519" y2="550" stroke="#2f81f7" stroke-width="2.5" opacity="0.85" />
<line x1="519" y1="550" x2="581" y2="542" stroke="#2f81f7" stroke-width="2.5" opacity="0.85" />
<line x1="643" y1="366" x2="641" y2="541" stroke="#2f81f7" stroke-width="2.5" opacity="0.85" />
<line x1="641" y1="541" x2="727" y2="530" stroke="#2f81f7" stroke-width="2.5" opacity="0.85" />
<line x1="727" y1="530" x2="801" y2="545" stroke="#2f81f7" stroke-width="2.5" opacity="0.85" />
<line x1="111" y1="538" x2="105" y2="631" stroke="#2f81f7" stroke-width="2.5" opacity="0.85" />
<line x1="111" y1="538" x2="194" y2="653" stroke="#2f81f7" stroke-width="2.5" opacity="0.85" />
<line x1="194" y1="653" x2="269" y2="636" stroke="#2f81f7" stroke-width="2.5" opacity="0.85" />
<line x1="355" y1="542" x2="344" y2="642" stroke="#2f81f7" stroke-width="2.5" opacity="0.85" />
<line x1="344" y1="642" x2="443" y2="641" stroke="#2f81f7" stroke-width="2.5" opacity="0.85" />
<line x1="443" y1="641" x2="500" y2="653" stroke="#2f81f7" stroke-width="2.5" opacity="0.85" />
<line x1="581" y1="542" x2="594" y2="641" stroke="#2f81f7" stroke-width="2.5" opacity="0.85" />
<line x1="641" y1="541" x2="644" y2="632" stroke="#2f81f7" stroke-width="2.5" opacity="0.85" />
<line x1="644" y1="632" x2="738" y2="647" stroke="#2f81f7" stroke-width="2.5" opacity="0.85" />
<line x1="738" y1="647" x2="809" y2="641" stroke="#2f81f7" stroke-width="2.5" opacity="0.85" />
<circle cx="114" cy="70" r="9" fill="#d29922" stroke="#ffffff" stroke-width="1.5" />
<text x="126" y="74" fill="#c9d1d9" font-size="11" font-family="sans-serif" font-weight="bold">0</text>
<circle cx="183" cy="67" r="9" fill="#238636" stroke="#ffffff" stroke-width="1.5" />
<text x="195" y="71" fill="#c9d1d9" font-size="11" font-family="sans-serif" font-weight="bold">1</text>
<circle cx="260" cy="67" r="9" fill="#238636" stroke="#ffffff" stroke-width="1.5" />
<text x="272" y="71" fill="#c9d1d9" font-size="11" font-family="sans-serif" font-weight="bold">2</text>
<circle cx="357" cy="77" r="9" fill="#238636" stroke="#ffffff" stroke-width="1.5" />
<text x="369" y="81" fill="#c9d1d9" font-size="11" font-family="sans-serif" font-weight="bold">3</text>
<circle cx="439" cy="75" r="9" fill="#238636" stroke="#ffffff" stroke-width="1.5" />
<text x="451" y="79" fill="#c9d1d9" font-size="11" font-family="sans-serif" font-weight="bold">4</text>
<circle cx="511" cy="89" r="9" fill="#238636" stroke="#ffffff" stroke-width="1.5" />
<text x="523" y="93" fill="#c9d1d9" font-size="11" font-family="sans-serif" font-weight="bold">5</text>
<circle cx="575" cy="91" r="9" fill="#238636" stroke="#ffffff" stroke-width="1.5" />
<text x="587" y="95" fill="#c9d1d9" font-size="11" font-family="sans-serif" font-weight="bold">6</text>
<circle cx="645" cy="99" r="9" fill="#238636" stroke="#ffffff" stroke-width="1.5" />
<text x="657" y="103" fill="#c9d1d9" font-size="11" font-family="sans-serif" font-weight="bold">7</text>
<circle cx="722" cy="78" r="9" fill="#238636" stroke="#ffffff" stroke-width="1.5" />
<text x="734" y="82" fill="#c9d1d9" font-size="11" font-family="sans-serif" font-weight="bold">8</text>
<circle cx="816" cy="82" r="9" fill="#238636" stroke="#ffffff" stroke-width="1.5" />
<text x="828" y="86" fill="#c9d1d9" font-size="11" font-family="sans-serif" font-weight="bold">9</text>
<circle cx="87" cy="254" r="9" fill="#238636" stroke="#ffffff" stroke-width="1.5" />
<text x="99" y="258" fill="#c9d1d9" font-size="11" font-family="sans-serif" font-weight="bold">10</text>
<circle cx="172" cy="254" r="9" fill="#238636" stroke="#ffffff" stroke-width="1.5" />
<text x="184" y="258" fill="#c9d1d9" font-size="11" font-family="sans-serif" font-weight="bold">11</text>
<circle cx="267" cy="242" r="9" fill="#238636" stroke="#ffffff" stroke-width="1.5" />
<text x="279" y="246" fill="#c9d1d9" font-size="11" font-family="sans-serif" font-weight="bold">12</text>
<circle cx="340" cy="253" r="9" fill="#238636" stroke="#ffffff" stroke-width="1.5" />
<text x="352" y="257" fill="#c9d1d9" font-size="11" font-family="sans-serif" font-weight="bold">13</text>
<circle cx="416" cy="270" r="9" fill="#238636" stroke="#ffffff" stroke-width="1.5" />
<text x="428" y="274" fill="#c9d1d9" font-size="11" font-family="sans-serif" font-weight="bold">14</text>
<circle cx="497" cy="253" r="9" fill="#238636" stroke="#ffffff" stroke-width="1.5" />
<text x="509" y="257" fill="#c9d1d9" font-size="11" font-family="sans-serif" font-weight="bold">15</text>
<circle cx="581" cy="254" r="9" fill="#238636" stroke="#ffffff" stroke-width="1.5" />
<text x="593" y="258" fill="#c9d1d9" font-size="11" font-family="sans-serif" font-weight="bold">16</text>
<circle cx="658" cy="276" r="9" fill="#238636" stroke="#ffffff" stroke-width="1.5" />
<text x="670" y="280" fill="#c9d1d9" font-size="11" font-family="sans-serif" font-weight="bold">17</text>
<circle cx="724" cy="256" r="9" fill="#238636" stroke="#ffffff" stroke-width="1.5" />
<text x="736" y="260" fill="#c9d1d9" font-size="11" font-family="sans-serif" font-weight="bold">18</text>
<circle cx="812" cy="241" r="9" fill="#238636" stroke="#ffffff" stroke-width="1.5" />
<text x="824" y="245" fill="#c9d1d9" font-size="11" font-family="sans-serif" font-weight="bold">19</text>
<circle cx="115" cy="359" r="9" fill="#238636" stroke="#ffffff" stroke-width="1.5" />
<text x="127" y="363" fill="#c9d1d9" font-size="11" font-family="sans-serif" font-weight="bold">20</text>
<circle cx="172" cy="379" r="9" fill="#238636" stroke="#ffffff" stroke-width="1.5" />
<text x="184" y="383" fill="#c9d1d9" font-size="11" font-family="sans-serif" font-weight="bold">21</text>
<circle cx="281" cy="345" r="9" fill="#238636" stroke="#ffffff" stroke-width="1.5" />
<text x="293" y="349" fill="#c9d1d9" font-size="11" font-family="sans-serif" font-weight="bold">22</text>
<circle cx="359" cy="369" r="9" fill="#238636" stroke="#ffffff" stroke-width="1.5" />
<text x="371" y="373" fill="#c9d1d9" font-size="11" font-family="sans-serif" font-weight="bold">23</text>
<circle cx="435" cy="379" r="9" fill="#238636" stroke="#ffffff" stroke-width="1.5" />
<text x="447" y="383" fill="#c9d1d9" font-size="11" font-family="sans-serif" font-weight="bold">24</text>
<circle cx="502" cy="353" r="9" fill="#238636" stroke="#ffffff" stroke-width="1.5" />
<text x="514" y="357" fill="#c9d1d9" font-size="11" font-family="sans-serif" font-weight="bold">25</text>
<circle cx="566" cy="363" r="9" fill="#238636" stroke="#ffffff" stroke-width="1.5" />
<text x="578" y="367" fill="#c9d1d9" font-size="11" font-family="sans-serif" font-weight="bold">26</text>
<circle cx="643" cy="366" r="9" fill="#238636" stroke="#ffffff" stroke-width="1.5" />
<text x="655" y="370" fill="#c9d1d9" font-size="11" font-family="sans-serif" font-weight="bold">27</text>
<circle cx="743" cy="357" r="9" fill="#238636" stroke="#ffffff" stroke-width="1.5" />
<text x="755" y="361" fill="#c9d1d9" font-size="11" font-family="sans-serif" font-weight="bold">28</text>
<circle cx="810" cy="378" r="9" fill="#238636" stroke="#ffffff" stroke-width="1.5" />
<text x="822" y="382" fill="#c9d1d9" font-size="11" font-family="sans-serif" font-weight="bold">29</text>
<circle cx="111" cy="538" r="9" fill="#238636" stroke="#ffffff" stroke-width="1.5" />
<text x="123" y="542" fill="#c9d1d9" font-size="11" font-family="sans-serif" font-weight="bold">30</text>
<circle cx="196" cy="557" r="9" fill="#238636" stroke="#ffffff" stroke-width="1.5" />
<text x="208" y="561" fill="#c9d1d9" font-size="11" font-family="sans-serif" font-weight="bold">31</text>
<circle cx="262" cy="537" r="9" fill="#238636" stroke="#ffffff" stroke-width="1.5" />
<text x="274" y="541" fill="#c9d1d9" font-size="11" font-family="sans-serif" font-weight="bold">32</text>
<circle cx="355" cy="542" r="9" fill="#238636" stroke="#ffffff" stroke-width="1.5" />
<text x="367" y="546" fill="#c9d1d9" font-size="11" font-family="sans-serif" font-weight="bold">33</text>
<circle cx="422" cy="549" r="9" fill="#238636" stroke="#ffffff" stroke-width="1.5" />
<text x="434" y="553" fill="#c9d1d9" font-size="11" font-family="sans-serif" font-weight="bold">34</text>
<circle cx="519" cy="550" r="9" fill="#238636" stroke="#ffffff" stroke-width="1.5" />
<text x="531" y="554" fill="#c9d1d9" font-size="11" font-family="sans-serif" font-weight="bold">35</text>
<circle cx="581" cy="542" r="9" fill="#238636" stroke="#ffffff" stroke-width="1.5" />
<text x="593" y="546" fill="#c9d1d9" font-size="11" font-family="sans-serif" font-weight="bold">36</text>
<circle cx="641" cy="541" r="9" fill="#238636" stroke="#ffffff" stroke-width="1.5" />
<text x="653" y="545" fill="#c9d1d9" font-size="11" font-family="sans-serif" font-weight="bold">37</text>
<circle cx="727" cy="530" r="9" fill="#238636" stroke="#ffffff" stroke-width="1.5" />
<text x="739" y="534" fill="#c9d1d9" font-size="11" font-family="sans-serif" font-weight="bold">38</text>
<circle cx="801" cy="545" r="9" fill="#238636" stroke="#ffffff" stroke-width="1.5" />
<text x="813" y="549" fill="#c9d1d9" font-size="11" font-family="sans-serif" font-weight="bold">39</text>
<circle cx="105" cy="631" r="9" fill="#238636" stroke="#ffffff" stroke-width="1.5" />
<text x="117" y="635" fill="#c9d1d9" font-size="11" font-family="sans-serif" font-weight="bold">40</text>
<circle cx="194" cy="653" r="9" fill="#238636" stroke="#ffffff" stroke-width="1.5" />
<text x="206" y="657" fill="#c9d1d9" font-size="11" font-family="sans-serif" font-weight="bold">41</text>
<circle cx="269" cy="636" r="9" fill="#238636" stroke="#ffffff" stroke-width="1.5" />
<text x="281" y="640" fill="#c9d1d9" font-size="11" font-family="sans-serif" font-weight="bold">42</text>
<circle cx="344" cy="642" r="9" fill="#238636" stroke="#ffffff" stroke-width="1.5" />
<text x="356" y="646" fill="#c9d1d9" font-size="11" font-family="sans-serif" font-weight="bold">43</text>
<circle cx="443" cy="641" r="9" fill="#238636" stroke="#ffffff" stroke-width="1.5" />
<text x="455" y="645" fill="#c9d1d9" font-size="11" font-family="sans-serif" font-weight="bold">44</text>
<circle cx="500" cy="653" r="9" fill="#238636" stroke="#ffffff" stroke-width="1.5" />
<text x="512" y="657" fill="#c9d1d9" font-size="11" font-family="sans-serif" font-weight="bold">45</text>
<circle cx="594" cy="641" r="9" fill="#238636" stroke="#ffffff" stroke-width="1.5" />
<text x="606" y="645" fill="#c9d1d9" font-size="11" font-family="sans-serif" font-weight="bold">46</text>
<circle cx="644" cy="632" r="9" fill="#238636" stroke="#ffffff" stroke-width="1.5" />
<text x="656" y="636" fill="#c9d1d9" font-size="11" font-family="sans-serif" font-weight="bold">47</text>
<circle cx="738" cy="647" r="9" fill="#238636" stroke="#ffffff" stroke-width="1.5" />
<text x="750" y="651" fill="#c9d1d9" font-size="11" font-family="sans-serif" font-weight="bold">48</text>
<circle cx="809" cy="641" r="9" fill="#238636" stroke="#ffffff" stroke-width="1.5" />
<text x="821" y="645" fill="#c9d1d9" font-size="11" font-family="sans-serif" font-weight="bold">49</text>
</svg>
