<svg xmlns="http://www.w3.org/2000/svg" width="1000" height="1000" style="background-color:#0d1117;">
<line x1="101" y1="86" x2="183" y2="79" stroke="#2f81f7" stroke-width="2.5" opacity="0.85" />
<line x1="183" y1="79" x2="259" y2="97" stroke="#2f81f7" stroke-width="2.5" opacity="0.85" />
<line x1="259" y1="97" x2="344" y2="92" stroke="#2f81f7" stroke-width="2.5" opacity="0.85" />
<line x1="344" y1="92" x2="432" y2="65" stroke="#2f81f7" stroke-width="2.5" opacity="0.85" />
<line x1="432" y1="65" x2="502" y2="77" stroke="#2f81f7" stroke-width="2.5" opacity="0.85" />
<line x1="502" y1="77" x2="574" y2="78" stroke="#2f81f7" stroke-width="2.5" opacity="0.85" />
<line x1="574" y1="78" x2="653" y2="75" stroke="#2f81f7" stroke-width="2.5" opacity="0.85" />
<line x1="653" y1="75" x2="727" y2="80" stroke="#2f81f7" stroke-width="2.5" opacity="0.85" />
<line x1="727" y1="80" x2="812" y2="94" stroke="#2f81f7" stroke-width="2.5" opacity="0.85" />
<line x1="101" y1="86" x2="108" y2="269" stroke="#2f81f7" stroke-width="2.5" opacity="0.85" />
<line x1="101" y1="86" x2="191" y2="264" stroke="#2f81f7" stroke-width="2.5" opacity="0.85" />
<line x1="259" y1="97" x2="277" y2="247" stroke="#2f81f7" stroke-width="2.5" opacity="0.85" />
<line x1="277" y1="247" x2="365" y2="259" stroke="#2f81f7" stroke-width="2.5" opacity="0.85" />
<line x1="365" y1="259" x2="417" y2="267" stroke="#2f81f7" stroke-width="2.5" opacity="0.85" />
<line x1="417" y1="267" x2="495" y2="245" stroke="#2f81f7" stroke-width="2.5" opacity="0.85" />
<line x1="495" y1="245" x2="574" y2="254" stroke="#2f81f7" stroke-width="2.5" opacity="0.85" />
<line x1="574" y1="254" x2="666" y2="255" stroke="#2f81f7" stroke-width="2.5" opacity="0.85" />
<line x1="744" y1="358" x2="726" y2="254" stroke="#2f81f7" stroke-width="2.5" opacity="0.85" />
<line x1="812" y1="94" x2="796" y2="243" stroke="#2f81f7" stroke-width="2.5" opacity="0.85" />
<line x1="108" y1="269" x2="96" y2="372" stroke="#2f81f7" stroke-width="2.5" opacity="0.85" />
<line x1="108" y1="269" x2="193" y2="358" stroke="#2f81f7" stroke-width="2.5" opacity="0.85" />
<line x1="277" y1="247" x2="271" y2="361" stroke="#2f81f7" stroke-width="2.5" opacity="0.85" />
<line x1="365" y1="259" x2="344" y2="355" stroke="#2f81f7" stroke-width="2.5" opacity="0.85" />
<line x1="417" y1="267" x2="430" y2="361" stroke="#2f81f7" stroke-width="2.5" opacity="0.85" />
<line x1="430" y1="361" x2="517" y2="375" stroke="#2f81f7" stroke-width="2.5" opacity="0.85" />
<line x1="517" y1="375" x2="595" y2="346" stroke="#2f81f7" stroke-width="2.5" opacity="0.85" />
<line x1="595" y1="346" x2="655" y2="372" stroke="#2f81f7" stroke-width="2.5" opacity="0.85" />
<line x1="655" y1="372" x2="744" y2="358" stroke="#2f81f7" stroke-width="2.5" opacity="0.85" />
<line x1="796" y1="243" x2="798" y2="362" stroke="#2f81f7" stroke-width="2.5" opacity="0.85" />
<line x1="96" y1="372" x2="93" y2="552" stroke="#2f81f7" stroke-width="2.5" opacity="0.85" />
<line x1="96" y1="372" x2="197" y2="531" stroke="#2f81f7" stroke-width="2.5" opacity="0.85" />
<line x1="197" y1="531" x2="268" y2="536" stroke="#2f81f7" stroke-width="2.5" opacity="0.85" />
<line x1="443" y1="530" x2="355" y2="553" stroke="#2f81f7" stroke-width="2.5" opacity="0.85" />
<line x1="430" y1="361" x2="443" y2="530" stroke="#2f81f7" stroke-width="2.5" opacity="0.85" />
<line x1="443" y1="530" x2="497" y2="552" stroke="#2f81f7" stroke-width="2.5" opacity="0.85" />
<line x1="517" y1="375" x2="590" y2="555" stroke="#2f81f7" stroke-width="2.5" opacity="0.85" />
<line x1="659" y1="647" x2="667" y2="540" stroke="#2f81f7" stroke-width="2.5" opacity="0.85" />
<line x1="744" y1="358" x2="728" y2="543" stroke="#2f81f7" stroke-width="2.5" opacity="0.85" />
<line x1="812" y1="633" x2="813" y2="542" stroke="#2f81f7" stroke-width="2.5" opacity="0.85" />
<line x1="93" y1="552" x2="86" y2="647" stroke="#2f81f7" stroke-width="2.5" opacity="0.85" />
<line x1="197" y1="531" x2="171" y2="630" stroke="#2f81f7" stroke-width="2.5" opacity="0.85" />
<line x1="171" y1="630" x2="276" y2="631" stroke="#2f81f7" stroke-width="2.5" opacity="0.85" />
<line x1="276" y1="631" x2="347" y2="644" stroke="#2f81f7" stroke-width="2.5" opacity="0.85" />
<line x1="443" y1="530" x2="418" y2="645" stroke="#2f81f7" stroke-width="2.5" opacity="0.85" />
<line x1="497" y1="552" x2="515" y2="639" stroke="#2f81f7" stroke-width="2.5" opacity="0.85" />
<line x1="515" y1="639" x2="592" y2="640" stroke="#2f81f7" stroke-width="2.5" opacity="0.85" />
<line x1="592" y1="640" x2="659" y2="647" stroke="#2f81f7" stroke-width="2.5" opacity="0.85" />
<line x1="659" y1="647" x2="729" y2="659" stroke="#2f81f7" stroke-width="2.5" opacity="0.85" />
<line x1="729" y1="659" x2="812" y2="633" stroke="#2f81f7" stroke-width="2.5" opacity="0.85" />
<circle cx="101" cy="86" r="9" fill="#d29922" stroke="#ffffff" stroke-width="1.5" />
<text x="113" y="90" fill="#c9d1d9" font-size="11" font-family="sans-serif" font-weight="bold">0</text>
<circle cx="183" cy="79" r="9" fill="#238636" stroke="#ffffff" stroke-width="1.5" />
<text x="195" y="83" fill="#c9d1d9" font-size="11" font-family="sans-serif" font-weight="bold">1</text>
<circle cx="259" cy="97" r="9" fill="#238636" stroke="#ffffff" stroke-width="1.5" />
<text x="271" y="101" fill="#c9d1d9" font-size="11" font-family="sans-serif" font-weight="bold">2</text>
<circle cx="344" cy="92" r="9" fill="#238636" stroke="#ffffff" stroke-width="1.5" />
<text x="356" y="96" fill="#c9d1d9" font-size="11" font-family="sans-serif" font-weight="bold">3</text>
<circle cx="432" cy="65" r="9" fill="#238636" stroke="#ffffff" stroke-width="1.5" />
<text x="444" y="69" fill="#c9d1d9" font-size="11" font-family="sans-serif" font-weight="bold">4</text>
<circle cx="502" cy="77" r="9" fill="#238636" stroke="#ffffff" stroke-width="1.5" />
<text x="514" y="81" fill="#c9d1d9" font-size="11" font-family="sans-serif" font-weight="bold">5</text>
<circle cx="574" cy="78" r="9" fill="#238636" stroke="#ffffff" stroke-width="1.5" />
<text x="586" y="82" fill="#c9d1d9" font-size="11" font-family="sans-serif" font-weight="bold">6</text>
<circle cx="653" cy="75" r="9" fill="#238636" stroke="#ffffff" stroke-width="1.5" />
<text x="665" y="79" fill="#c9d1d9" font-size="11" font-family="sans-serif" font-weight="bold">7</text>
<circle cx="727" cy="80" r="9" fill="#238636" stroke="#ffffff" stroke-width="1.5" />
<text x="739" y="84" fill="#c9d1d9" font-size="11" font-family="sans-serif" font-weight="bold">8</text>
<circle cx="812" cy="94" r="9" fill="#238636" stroke="#ffffff" stroke-width="1.5" />
<text x="824" y="98" fill="#c9d1d9" font-size="11" font-family="sans-serif" font-weight="bold">9</text>
<circle cx="108" cy="269" r="9" fill="#238636" stroke="#ffffff" stroke-width="1.5" />
<text x="120" y="273" fill="#c9d1d9" font-size="11" font-family="sans-serif" font-weight="bold">10</text>
<circle cx="191" cy="264" r="9" fill="#238636" stroke="#ffffff" stroke-width="1.5" />
<text x="203" y="268" fill="#c9d1d9" font-size="11" font-family="sans-serif" font-weight="bold">11</text>
<circle cx="277" cy="247" r="9" fill="#238636" stroke="#ffffff" stroke-width="1.5" />
<text x="289" y="251" fill="#c9d1d9" font-size="11" font-family="sans-serif" font-weight="bold">12</text>
<circle cx="365" cy="259" r="9" fill="#238636" stroke="#ffffff" stroke-width="1.5" />
<text x="377" y="263" fill="#c9d1d9" font-size="11" font-family="sans-serif" font-weight="bold">13</text>
<circle cx="417" cy="267" r="9" fill="#238636" stroke="#ffffff" stroke-width="1.5" />
<text x="429" y="271" fill="#c9d1d9" font-size="11" font-family="sans-serif" font-weight="bold">14</text>
<circle cx="495" cy="245" r="9" fill="#238636" stroke="#ffffff" stroke-width="1.5" />
<text x="507" y="249" fill="#c9d1d9" font-size="11" font-family="sans-serif" font-weight="bold">15</text>
<circle cx="574" cy="254" r="9" fill="#238636" stroke="#ffffff" stroke-width="1.5" />
<text x="586" y="258" fill="#c9d1d9" font-size="11" font-family="sans-serif" font-weight="bold">16</text>
<circle cx="666" cy="255" r="9" fill="#238636" stroke="#ffffff" stroke-width="1.5" />
<text x="678" y="259" fill="#c9d1d9" font-size="11" font-family="sans-serif" font-weight="bold">17</text>
<circle cx="726" cy="254" r="9" fill="#238636" stroke="#ffffff" stroke-width="1.5" />
<text x="738" y="258" fill="#c9d1d9" font-size="11" font-family="sans-serif" font-weight="bold">18</text>
<circle cx="796" cy="243" r="9" fill="#238636" stroke="#ffffff" stroke-width="1.5" />
<text x="808" y="247" fill="#c9d1d9" font-size="11" font-family="sans-serif" font-weight="bold">19</text>
<circle cx="96" cy="372" r="9" fill="#238636" stroke="#ffffff" stroke-width="1.5" />
<text x="108" y="376" fill="#c9d1d9" font-size="11" font-family="sans-serif" font-weight="bold">20</text>
<circle cx="193" cy="358" r="9" fill="#238636" stroke="#ffffff" stroke-width="1.5" />
<text x="205" y="362" fill="#c9d1d9" font-size="11" font-family="sans-serif" font-weight="bold">21</text>
<circle cx="271" cy="361" r="9" fill="#238636" stroke="#ffffff" stroke-width="1.5" />
<text x="283" y="365" fill="#c9d1d9" font-size="11" font-family="sans-serif" font-weight="bold">22</text>
<circle cx="344" cy="355" r="9" fill="#238636" stroke="#ffffff" stroke-width="1.5" />
<text x="356" y="359" fill="#c9d1d9" font-size="11" font-family="sans-serif" font-weight="bold">23</text>
<circle cx="430" cy="361" r="9" fill="#238636" stroke="#ffffff" stroke-width="1.5" />
<text x="442" y="365" fill="#c9d1d9" font-size="11" font-family="sans-serif" font-weight="bold">24</text>
<circle cx="517" cy="375" r="9" fill="#238636" stroke="#ffffff" stroke-width="1.5" />
<text x="529" y="379" fill="#c9d1d9" font-size="11" font-family="sans-serif" font-weight="bold">25</text>
<circle cx="595" cy="346" r="9" fill="#238636" stroke="#ffffff" stroke-width="1.5" />
<text x="607" y="350" fill="#c9d1d9" font-size="11" font-family="sans-serif" font-weight="bold">26</text>
<circle cx="655" cy="372" r="9" fill="#238636" stroke="#ffffff" stroke-width="1.5" />
<text x="667" y="376" fill="#c9d1d9" font-size="11" font-family="sans-serif" font-weight="bold">27</text>
<circle cx="744" cy="358" r="9" fill="#238636" stroke="#ffffff" stroke-width="1.5" />
<text x="756" y="362" fill="#c9d1d9" font-size="11" font-family="sans-serif" font-weight="bold">28</text>
<circle cx="798" cy="362" r="9" fill="#238636" stroke="#ffffff" stroke-width="1.5" />
<text x="810" y="366" fill="#c9d1d9" font-size="11" font-family="sans-serif" font-weight="bold">29</text>
<circle cx="93" cy="552" r="9" fill="#238636" stroke="#ffffff" stroke-width="1.5" />
<text x="105" y="556" fill="#c9d1d9" font-size="11" font-family="sans-serif" font-weight="bold">30</text>
<circle cx="197" cy="531" r="9" fill="#238636" stroke="#ffffff" stroke-width="1.5" />
<text x="209" y="535" fill="#c9d1d9" font-size="11" font-family="sans-serif" font-weight="bold">31</text>
<circle cx="268" cy="536" r="9" fill="#238636" stroke="#ffffff" stroke-width="1.5" />
<text x="280" y="540" fill="#c9d1d9" font-size="11" font-family="sans-serif" font-weight="bold">32</text>
<circle cx="355" cy="553" r="9" fill="#238636" stroke="#ffffff" stroke-width="1.5" />
<text x="367" y="557" fill="#c9d1d9" font-size="11" font-family="sans-serif" font-weight="bold">33</text>
<circle cx="443" cy="530" r="9" fill="#238636" stroke="#ffffff" stroke-width="1.5" />
<text x="455" y="534" fill="#c9d1d9" font-size="11" font-family="sans-serif" font-weight="bold">34</text>
<circle cx="497" cy="552" r="9" fill="#238636" stroke="#ffffff" stroke-width="1.5" />
<text x="509" y="556" fill="#c9d1d9" font-size="11" font-family="sans-serif" font-weight="bold">35</text>
<circle cx="590" cy="555" r="9" fill="#238636" stroke="#ffffff" stroke-width="1.5" />
<text x="602" y="559" fill="#c9d1d9" font-size="11" font-family="sans-serif" font-weight="bold">36</text>
<circle cx="667" cy="540" r="9" fill="#238636" stroke="#ffffff" stroke-width="1.5" />
<text x="679" y="544" fill="#c9d1d9" font-size="11" font-family="sans-serif" font-weight="bold">37</text>
<circle cx="728" cy="543" r="9" fill="#238636" stroke="#ffffff" stroke-width="1.5" />
<text x="740" y="547" fill="#c9d1d9" font-size="11" font-family="sans-serif" font-weight="bold">38</text>
<circle cx="813" cy="542" r="9" fill="#238636" stroke="#ffffff" stroke-width="1.5" />
<text x="825" y="546" fill="#c9d1d9" font-size="11" font-family="sans-serif" font-weight="bold">39</text>
<circle cx="86" cy="647" r="9" fill="#238636" stroke="#ffffff" stroke-width="1.5" />
<text x="98" y="651" fill="#c9d1d9" font-size="11" font-family="sans-serif" font-weight="bold">40</text>
<circle cx="171" cy="630" r="9" fill="#238636" stroke="#ffffff" stroke-width="1.5" />
<text x="183" y="634" fill="#c9d1d9" font-size="11" font-family="sans-serif" font-weight="bold">41</text>
<circle cx="276" cy="631" r="9" fill="#238636" stroke="#ffffff" stroke-width="1.5" />
<text x="288" y="635" fill="#c9d1d9" font-size="11" font-family="sans-serif" font-weight="bold">42</text>
<circle cx="347" cy="644" r="9" fill="#238636" stroke="#ffffff" stroke-width="1.5" />
<text x="359" y="648" fill="#c9d1d9" font-size="11" font-family="sans-serif" font-weight="bold">43</text>
<circle cx="418" cy="645" r="9" fill="#238636" stroke="#ffffff" stroke-width="1.5" />
<text x="430" y="649" fill="#c9d1d9" font-size="11" font-family="sans-serif" font-weight="bold">44</text>
<circle cx="515" cy="639" r="9" fill="#238636" stroke="#ffffff" stroke-width="1.5" />
<text x="527" y="643" fill="#c9d1d9" font-size="11" font-family="sans-serif" font-weight="bold">45</text>
<circle cx="592" cy="640" r="9" fill="#238636" stroke="#ffffff" stroke-width="1.5" />
<text x="604" y="644" fill="#c9d1d9" font-size="11" font-family="sans-serif" font-weight="bold">46</text>
<circle cx="659" cy="647" r="9" fill="#238636" stroke="#ffffff" stroke-width="1.5" />
<text x="671" y="651" fill="#c9d1d9" font-size="11" font-family="sans-serif" font-weight="bold">47</text>
<circle cx="729" cy="659" r="9" fill="#238636" stroke="#ffffff" stroke-width="1.5" />
<text x="741" y="663" fill="#c9d1d9" font-size="11" font-family="sans-serif" font-weight="bold">48</text>
<circle cx="812" cy="633" r="9" fill="#238636" stroke="#ffffff" stroke-width="1.5" />
<text x="824" y="637" fill="#c9d1d9" font-size="11" font-family="sans-serif" font-weight="bold">49</text>
</svg>
