<svg xmlns="http://www.w3.org/2000/svg" width="1000" height="1000" style="background-color:#0d1117;">
<line x1="280.494" y1="323.128" x2="265.514" y2="425.679" stroke="#3fb950" stroke-width="2.5" opacity="0.8" />
<line x1="466.008" y1="80" x2="561.646" y2="84.6091" stroke="#3fb950" stroke-width="2.5" opacity="0.8" />
<line x1="173.333" y1="317.366" x2="171.029" y2="418.765" stroke="#3fb950" stroke-width="2.5" opacity="0.8" />
<line x1="561.646" y1="84.6091" x2="547.819" y2="296.626" stroke="#3fb950" stroke-width="2.5" opacity="0.8" />
<line x1="804.774" y1="630.782" x2="799.012" y2="751.77" stroke="#3fb950" stroke-width="2.5" opacity="0.8" />
<line x1="721.811" y1="101.893" x2="820.905" y2="97.284" stroke="#3fb950" stroke-width="2.5" opacity="0.8" />
<line x1="908.477" y1="309.3" x2="905.021" y2="433.745" stroke="#3fb950" stroke-width="2.5" opacity="0.8" />
<line x1="563.951" y1="756.379" x2="648.066" y2="724.115" stroke="#3fb950" stroke-width="2.5" opacity="0.8" />
<line x1="374.979" y1="86.9136" x2="466.008" y2="80" stroke="#3fb950" stroke-width="2.5" opacity="0.8" />
<line x1="173.333" y1="317.366" x2="280.494" y2="323.128" stroke="#3fb950" stroke-width="2.5" opacity="0.8" />
<line x1="376.132" y1="312.757" x2="470.617" y2="320.823" stroke="#3fb950" stroke-width="2.5" opacity="0.8" />
<line x1="638.848" y1="634.239" x2="648.066" y2="724.115" stroke="#3fb950" stroke-width="2.5" opacity="0.8" />
<line x1="91.5226" y1="93.8272" x2="187.16" y2="115.72" stroke="#3fb950" stroke-width="2.5" opacity="0.8" />
<line x1="561.646" y1="84.6091" x2="623.868" y2="104.198" stroke="#3fb950" stroke-width="2.5" opacity="0.8" />
<line x1="187.16" y1="115.72" x2="292.016" y2="84.6091" stroke="#3fb950" stroke-width="2.5" opacity="0.8" />
<line x1="726.42" y1="630.782" x2="804.774" y2="630.782" stroke="#3fb950" stroke-width="2.5" opacity="0.8" />
<line x1="370.37" y1="633.086" x2="475.226" y2="616.955" stroke="#3fb950" stroke-width="2.5" opacity="0.8" />
<line x1="297.778" y1="620.412" x2="370.37" y2="633.086" stroke="#3fb950" stroke-width="2.5" opacity="0.8" />
<line x1="799.012" y1="751.77" x2="905.021" y2="756.379" stroke="#3fb950" stroke-width="2.5" opacity="0.8" />
<line x1="726.42" y1="630.782" x2="725.268" y2="755.226" stroke="#3fb950" stroke-width="2.5" opacity="0.8" />
<line x1="451.029" y1="728.724" x2="563.951" y2="756.379" stroke="#3fb950" stroke-width="2.5" opacity="0.8" />
<line x1="920" y1="623.868" x2="905.021" y2="756.379" stroke="#3fb950" stroke-width="2.5" opacity="0.8" />
<line x1="80" y1="629.63" x2="103.045" y2="759.835" stroke="#3fb950" stroke-width="2.5" opacity="0.8" />
<line x1="546.667" y1="638.848" x2="638.848" y2="634.239" stroke="#3fb950" stroke-width="2.5" opacity="0.8" />
<line x1="292.016" y1="84.6091" x2="280.494" y2="323.128" stroke="#3fb950" stroke-width="2.5" opacity="0.8" />
<line x1="80" y1="629.63" x2="175.638" y2="622.716" stroke="#3fb950" stroke-width="2.5" opacity="0.8" />
<line x1="920" y1="92.6749" x2="908.477" y2="309.3" stroke="#3fb950" stroke-width="2.5" opacity="0.8" />
<line x1="713.745" y1="303.539" x2="720.658" y2="436.049" stroke="#3fb950" stroke-width="2.5" opacity="0.8" />
<line x1="558.189" y1="418.765" x2="648.066" y2="431.44" stroke="#3fb950" stroke-width="2.5" opacity="0.8" />
<line x1="558.189" y1="418.765" x2="546.667" y2="638.848" stroke="#3fb950" stroke-width="2.5" opacity="0.8" />
<line x1="648.066" y1="431.44" x2="720.658" y2="436.049" stroke="#3fb950" stroke-width="2.5" opacity="0.8" />
<line x1="805.926" y1="409.547" x2="804.774" y2="630.782" stroke="#3fb950" stroke-width="2.5" opacity="0.8" />
<line x1="820.905" y1="97.284" x2="920" y2="92.6749" stroke="#3fb950" stroke-width="2.5" opacity="0.8" />
<line x1="292.016" y1="84.6091" x2="374.979" y2="86.9136" stroke="#3fb950" stroke-width="2.5" opacity="0.8" />
<line x1="638.848" y1="634.239" x2="726.42" y2="630.782" stroke="#3fb950" stroke-width="2.5" opacity="0.8" />
<line x1="547.819" y1="296.626" x2="558.189" y2="418.765" stroke="#3fb950" stroke-width="2.5" opacity="0.8" />
<line x1="721.811" y1="101.893" x2="713.745" y2="303.539" stroke="#3fb950" stroke-width="2.5" opacity="0.8" />
<line x1="475.226" y1="616.955" x2="546.667" y2="638.848" stroke="#3fb950" stroke-width="2.5" opacity="0.8" />
<line x1="175.638" y1="622.716" x2="297.778" y2="620.412" stroke="#3fb950" stroke-width="2.5" opacity="0.8" />
<line x1="629.63" y1="317.366" x2="713.745" y2="303.539" stroke="#3fb950" stroke-width="2.5" opacity="0.8" />
<line x1="362.305" y1="759.835" x2="451.029" y2="728.724" stroke="#3fb950" stroke-width="2.5" opacity="0.8" />
<line x1="280.494" y1="323.128" x2="376.132" y2="312.757" stroke="#3fb950" stroke-width="2.5" opacity="0.8" />
<line x1="457.942" y1="403.786" x2="558.189" y2="418.765" stroke="#3fb950" stroke-width="2.5" opacity="0.8" />
<line x1="265.514" y1="425.679" x2="388.807" y2="434.897" stroke="#3fb950" stroke-width="2.5" opacity="0.8" />
<line x1="103.045" y1="759.835" x2="175.638" y2="751.77" stroke="#3fb950" stroke-width="2.5" opacity="0.8" />
<line x1="91.5226" y1="93.8272" x2="101.893" y2="309.3" stroke="#3fb950" stroke-width="2.5" opacity="0.8" />
<line x1="801.317" y1="298.93" x2="805.926" y2="409.547" stroke="#3fb950" stroke-width="2.5" opacity="0.8" />
<line x1="295.473" y1="734.486" x2="362.305" y2="759.835" stroke="#3fb950" stroke-width="2.5" opacity="0.8" />
<line x1="101.893" y1="309.3" x2="80" y2="413.004" stroke="#3fb950" stroke-width="2.5" opacity="0.8" />
<circle cx="91.5226" cy="93.8272" r="9" fill="#238636" stroke="#ffffff" stroke-width="1.5" />
<text x="103.523" y="97.8272" fill="#c9d1d9" font-size="11" font-family="sans-serif" font-weight="bold">0</text>
<circle cx="187.16" cy="115.72" r="9" fill="#238636" stroke="#ffffff" stroke-width="1.5" />
<text x="199.16" y="119.72" fill="#c9d1d9" font-size="11" font-family="sans-serif" font-weight="bold">1</text>
<circle cx="292.016" cy="84.6091" r="9" fill="#238636" stroke="#ffffff" stroke-width="1.5" />
<text x="304.016" y="88.6091" fill="#c9d1d9" font-size="11" font-family="sans-serif" font-weight="bold">2</text>
<circle cx="374.979" cy="86.9136" r="9" fill="#238636" stroke="#ffffff" stroke-width="1.5" />
<text x="386.979" y="90.9136" fill="#c9d1d9" font-size="11" font-family="sans-serif" font-weight="bold">3</text>
<circle cx="466.008" cy="80" r="9" fill="#238636" stroke="#ffffff" stroke-width="1.5" />
<text x="478.008" y="84" fill="#c9d1d9" font-size="11" font-family="sans-serif" font-weight="bold">4</text>
<circle cx="561.646" cy="84.6091" r="9" fill="#238636" stroke="#ffffff" stroke-width="1.5" />
<text x="573.646" y="88.6091" fill="#c9d1d9" font-size="11" font-family="sans-serif" font-weight="bold">5</text>
<circle cx="623.868" cy="104.198" r="9" fill="#238636" stroke="#ffffff" stroke-width="1.5" />
<text x="635.868" y="108.198" fill="#c9d1d9" font-size="11" font-family="sans-serif" font-weight="bold">6</text>
<circle cx="721.811" cy="101.893" r="9" fill="#238636" stroke="#ffffff" stroke-width="1.5" />
<text x="733.811" y="105.893" fill="#c9d1d9" font-size="11" font-family="sans-serif" font-weight="bold">7</text>
<circle cx="820.905" cy="97.284" r="9" fill="#238636" stroke="#ffffff" stroke-width="1.5" />
<text x="832.905" y="101.284" fill="#c9d1d9" font-size="11" font-family="sans-serif" font-weight="bold">8</text>
<circle cx="920" cy="92.6749" r="9" fill="#238636" stroke="#ffffff" stroke-width="1.5" />
<text x="932" y="96.6749" fill="#c9d1d9" font-size="11" font-family="sans-serif" font-weight="bold">9</text>
<circle cx="101.893" cy="309.3" r="9" fill="#238636" stroke="#ffffff" stroke-width="1.5" />
<text x="113.893" y="313.3" fill="#c9d1d9" font-size="11" font-family="sans-serif" font-weight="bold">10</text>
<circle cx="173.333" cy="317.366" r="9" fill="#238636" stroke="#ffffff" stroke-width="1.5" />
<text x="185.333" y="321.366" fill="#c9d1d9" font-size="11" font-family="sans-serif" font-weight="bold">11</text>
<circle cx="280.494" cy="323.128" r="9" fill="#238636" stroke="#ffffff" stroke-width="1.5" />
<text x="292.494" y="327.128" fill="#c9d1d9" font-size="11" font-family="sans-serif" font-weight="bold">12</text>
<circle cx="376.132" cy="312.757" r="9" fill="#238636" stroke="#ffffff" stroke-width="1.5" />
<text x="388.132" y="316.757" fill="#c9d1d9" font-size="11" font-family="sans-serif" font-weight="bold">13</text>
<circle cx="470.617" cy="320.823" r="9" fill="#238636" stroke="#ffffff" stroke-width="1.5" />
<text x="482.617" y="324.823" fill="#c9d1d9" font-size="11" font-family="sans-serif" font-weight="bold">14</text>
<circle cx="547.819" cy="296.626" r="9" fill="#238636" stroke="#ffffff" stroke-width="1.5" />
<text x="559.819" y="300.626" fill="#c9d1d9" font-size="11" font-family="sans-serif" font-weight="bold">15</text>
<circle cx="629.63" cy="317.366" r="9" fill="#238636" stroke="#ffffff" stroke-width="1.5" />
<text x="641.63" y="321.366" fill="#c9d1d9" font-size="11" font-family="sans-serif" font-weight="bold">16</text>
<circle cx="713.745" cy="303.539" r="9" fill="#238636" stroke="#ffffff" stroke-width="1.5" />
<text x="725.745" y="307.539" fill="#c9d1d9" font-size="11" font-family="sans-serif" font-weight="bold">17</text>
<circle cx="801.317" cy="298.93" r="9" fill="#238636" stroke="#ffffff" stroke-width="1.5" />
<text x="813.317" y="302.93" fill="#c9d1d9" font-size="11" font-family="sans-serif" font-weight="bold">18</text>
<circle cx="908.477" cy="309.3" r="9" fill="#238636" stroke="#ffffff" stroke-width="1.5" />
<text x="920.477" y="313.3" fill="#c9d1d9" font-size="11" font-family="sans-serif" font-weight="bold">19</text>
<circle cx="80" cy="413.004" r="9" fill="#238636" stroke="#ffffff" stroke-width="1.5" />
<text x="92" y="417.004" fill="#c9d1d9" font-size="11" font-family="sans-serif" font-weight="bold">20</text>
<circle cx="171.029" cy="418.765" r="9" fill="#238636" stroke="#ffffff" stroke-width="1.5" />
<text x="183.029" y="422.765" fill="#c9d1d9" font-size="11" font-family="sans-serif" font-weight="bold">21</text>
<circle cx="265.514" cy="425.679" r="9" fill="#238636" stroke="#ffffff" stroke-width="1.5" />
<text x="277.514" y="429.679" fill="#c9d1d9" font-size="11" font-family="sans-serif" font-weight="bold">22</text>
<circle cx="388.807" cy="434.897" r="9" fill="#238636" stroke="#ffffff" stroke-width="1.5" />
<text x="400.807" y="438.897" fill="#c9d1d9" font-size="11" font-family="sans-serif" font-weight="bold">23</text>
<circle cx="457.942" cy="403.786" r="9" fill="#238636" stroke="#ffffff" stroke-width="1.5" />
<text x="469.942" y="407.786" fill="#c9d1d9" font-size="11" font-family="sans-serif" font-weight="bold">24</text>
<circle cx="558.189" cy="418.765" r="9" fill="#238636" stroke="#ffffff" stroke-width="1.5" />
<text x="570.189" y="422.765" fill="#c9d1d9" font-size="11" font-family="sans-serif" font-weight="bold">25</text>
<circle cx="648.066" cy="431.44" r="9" fill="#238636" stroke="#ffffff" stroke-width="1.5" />
<text x="660.066" y="435.44" fill="#c9d1d9" font-size="11" font-family="sans-serif" font-weight="bold">26</text>
<circle cx="720.658" cy="436.049" r="9" fill="#238636" stroke="#ffffff" stroke-width="1.5" />
<text x="732.658" y="440.049" fill="#c9d1d9" font-size="11" font-family="sans-serif" font-weight="bold">27</text>
<circle cx="805.926" cy="409.547" r="9" fill="#238636" stroke="#ffffff" stroke-width="1.5" />
<text x="817.926" y="413.547" fill="#c9d1d9" font-size="11" font-family="sans-serif" font-weight="bold">28</text>
<circle cx="905.021" cy="433.745" r="9" fill="#238636" stroke="#ffffff" stroke-width="1.5" />
<text x="917.021" y="437.745" fill="#c9d1d9" font-size="11" font-family="sans-serif" font-weight="bold">29</text>
<circle cx="80" cy="629.63" r="9" fill="#238636" stroke="#ffffff" stroke-width="1.5" />
<text x="92" y="633.63" fill="#c9d1d9" font-size="11" font-family="sans-serif" font-weight="bold">30</text>
<circle cx="175.638" cy="622.716" r="9" fill="#238636" stroke="#ffffff" stroke-width="1.5" />
<text x="187.638" y="626.716" fill="#c9d1d9" font-size="11" font-family="sans-serif" font-weight="bold">31</text>
<circle cx="297.778" cy="620.412" r="9" fill="#238636" stroke="#ffffff" stroke-width="1.5" />
<text x="309.778" y="624.412" fill="#c9d1d9" font-size="11" font-family="sans-serif" font-weight="bold">32</text>
<circle cx="370.37" cy="633.086" r="9" fill="#238636" stroke="#ffffff" stroke-width="1.5" />
<text x="382.37" y="637.086" fill="#c9d1d9" font-size="11" font-family="sans-serif" font-weight="bold">33</text>
<circle cx="475.226" cy="616.955" r="9" fill="#238636" stroke="#ffffff" stroke-width="1.5" />
<text x="487.226" y="620.955" fill="#c9d1d9" font-size="11" font-family="sans-serif" font-weight="bold">34</text>
<circle cx="546.667" cy="638.848" r="9" fill="#238636" stroke="#ffffff" stroke-width="1.5" />
<text x="558.667" y="642.848" fill="#c9d1d9" font-size="11" font-family="sans-serif" font-weight="bold">35</text>
<circle cx="638.848" cy="634.239" r="9" fill="#238636" stroke="#ffffff" stroke-width="1.5" />
<text x="650.848" y="638.239" fill="#c9d1d9" font-size="11" font-family="sans-serif" font-weight="bold">36</text>
<circle cx="726.42" cy="630.782" r="9" fill="#238636" stroke="#ffffff" stroke-width="1.5" />
<text x="738.42" y="634.782" fill="#c9d1d9" font-size="11" font-family="sans-serif" font-weight="bold">37</text>
<circle cx="804.774" cy="630.782" r="9" fill="#238636" stroke="#ffffff" stroke-width="1.5" />
<text x="816.774" y="634.782" fill="#c9d1d9" font-size="11" font-family="sans-serif" font-weight="bold">38</text>
<circle cx="920" cy="623.868" r="9" fill="#238636" stroke="#ffffff" stroke-width="1.5" />
<text x="932" y="627.868" fill="#c9d1d9" font-size="11" font-family="sans-serif" font-weight="bold">39</text>
<circle cx="103.045" cy="759.835" r="9" fill="#238636" stroke="#ffffff" stroke-width="1.5" />
<text x="115.045" y="763.835" fill="#c9d1d9" font-size="11" font-family="sans-serif" font-weight="bold">40</text>
<circle cx="175.638" cy="751.77" r="9" fill="#238636" stroke="#ffffff" stroke-width="1.5" />
<text x="187.638" y="755.77" fill="#c9d1d9" font-size="11" font-family="sans-serif" font-weight="bold">41</text>
<circle cx="295.473" cy="734.486" r="9" fill="#238636" stroke="#ffffff" stroke-width="1.5" />
<text x="307.473" y="738.486" fill="#c9d1d9" font-size="11" font-family="sans-serif" font-weight="bold">42</text>
<circle cx="362.305" cy="759.835" r="9" fill="#238636" stroke="#ffffff" stroke-width="1.5" />
<text x="374.305" y="763.835" fill="#c9d1d9" font-size="11" font-family="sans-serif" font-weight="bold">43</text>
<circle cx="451.029" cy="728.724" r="9" fill="#238636" stroke="#ffffff" stroke-width="1.5" />
<text x="463.029" y="732.724" fill="#c9d1d9" font-size="11" font-family="sans-serif" font-weight="bold">44</text>
<circle cx="563.951" cy="756.379" r="9" fill="#238636" stroke="#ffffff" stroke-width="1.5" />
<text x="575.951" y="760.379" fill="#c9d1d9" font-size="11" font-family="sans-serif" font-weight="bold">45</text>
<circle cx="648.066" cy="724.115" r="9" fill="#238636" stroke="#ffffff" stroke-width="1.5" />
<text x="660.066" y="728.115" fill="#c9d1d9" font-size="11" font-family="sans-serif" font-weight="bold">46</text>
<circle cx="725.268" cy="755.226" r="9" fill="#238636" stroke="#ffffff" stroke-width="1.5" />
<text x="737.268" y="759.226" fill="#c9d1d9" font-size="11" font-family="sans-serif" font-weight="bold">47</text>
<circle cx="799.012" cy="751.77" r="9" fill="#238636" stroke="#ffffff" stroke-width="1.5" />
<text x="811.012" y="755.77" fill="#c9d1d9" font-size="11" font-family="sans-serif" font-weight="bold">48</text>
<circle cx="905.021" cy="756.379" r="9" fill="#238636" stroke="#ffffff" stroke-width="1.5" />
<text x="917.021" y="760.379" fill="#c9d1d9" font-size="11" font-family="sans-serif" font-weight="bold">49</text>
</svg>
