<svg xmlns="http://www.w3.org/2000/svg" width="1000" height="1000" style="background-color:#0d1117;">
<line x1="392" y1="112" x2="467.429" y2="99.4286" stroke="#3fb950" stroke-width="2.5" opacity="0.8" />
<line x1="744" y1="108.571" x2="718.857" y2="299.429" stroke="#3fb950" stroke-width="2.5" opacity="0.8" />
<line x1="460.571" y1="616" x2="560" y2="618.286" stroke="#3fb950" stroke-width="2.5" opacity="0.8" />
<line x1="176" y1="632" x2="294.857" y2="617.143" stroke="#3fb950" stroke-width="2.5" opacity="0.8" />
<line x1="715.429" y1="625.143" x2="739.429" y2="731.429" stroke="#3fb950" stroke-width="2.5" opacity="0.8" />
<line x1="465.143" y1="739.429" x2="556.571" y2="736" stroke="#3fb950" stroke-width="2.5" opacity="0.8" />
<line x1="816" y1="619.429" x2="825.143" y2="741.714" stroke="#3fb950" stroke-width="2.5" opacity="0.8" />
<line x1="744" y1="108.571" x2="808" y2="80" stroke="#3fb950" stroke-width="2.5" opacity="0.8" />
<line x1="900.571" y1="320" x2="889.143" y2="403.429" stroke="#3fb950" stroke-width="2.5" opacity="0.8" />
<line x1="894.857" y1="621.714" x2="920" y2="742.857" stroke="#3fb950" stroke-width="2.5" opacity="0.8" />
<line x1="196.571" y1="305.143" x2="286.857" y2="291.429" stroke="#3fb950" stroke-width="2.5" opacity="0.8" />
<line x1="376" y1="294.857" x2="456" y2="293.714" stroke="#3fb950" stroke-width="2.5" opacity="0.8" />
<line x1="83.4286" y1="112" x2="206.857" y2="107.429" stroke="#3fb950" stroke-width="2.5" opacity="0.8" />
<line x1="548.571" y1="98.2857" x2="626.286" y2="98.2857" stroke="#3fb950" stroke-width="2.5" opacity="0.8" />
<line x1="206.857" y1="107.429" x2="269.714" y2="83.4286" stroke="#3fb950" stroke-width="2.5" opacity="0.8" />
<line x1="715.429" y1="625.143" x2="816" y2="619.429" stroke="#3fb950" stroke-width="2.5" opacity="0.8" />
<line x1="658.286" y1="612.571" x2="641.143" y2="741.714" stroke="#3fb950" stroke-width="2.5" opacity="0.8" />
<line x1="648" y1="424" x2="714.286" y2="437.714" stroke="#3fb950" stroke-width="2.5" opacity="0.8" />
<line x1="548.571" y1="404.571" x2="648" y2="424" stroke="#3fb950" stroke-width="2.5" opacity="0.8" />
<line x1="545.143" y1="292.571" x2="548.571" y2="404.571" stroke="#3fb950" stroke-width="2.5" opacity="0.8" />
<line x1="93.7143" y1="635.429" x2="80" y2="729.143" stroke="#3fb950" stroke-width="2.5" opacity="0.8" />
<line x1="560" y1="618.286" x2="658.286" y2="612.571" stroke="#3fb950" stroke-width="2.5" opacity="0.8" />
<line x1="205.714" y1="412.571" x2="290.286" y2="424" stroke="#3fb950" stroke-width="2.5" opacity="0.8" />
<line x1="269.714" y1="83.4286" x2="286.857" y2="291.429" stroke="#3fb950" stroke-width="2.5" opacity="0.8" />
<line x1="93.7143" y1="635.429" x2="176" y2="632" stroke="#3fb950" stroke-width="2.5" opacity="0.8" />
<line x1="896" y1="114.286" x2="900.571" y2="320" stroke="#3fb950" stroke-width="2.5" opacity="0.8" />
<line x1="718.857" y1="299.429" x2="714.286" y2="437.714" stroke="#3fb950" stroke-width="2.5" opacity="0.8" />
<line x1="548.571" y1="404.571" x2="560" y2="618.286" stroke="#3fb950" stroke-width="2.5" opacity="0.8" />
<line x1="467.429" y1="99.4286" x2="548.571" y2="98.2857" stroke="#3fb950" stroke-width="2.5" opacity="0.8" />
<line x1="813.714" y1="436.571" x2="816" y2="619.429" stroke="#3fb950" stroke-width="2.5" opacity="0.8" />
<line x1="808" y1="80" x2="896" y2="114.286" stroke="#3fb950" stroke-width="2.5" opacity="0.8" />
<line x1="269.714" y1="83.4286" x2="392" y2="112" stroke="#3fb950" stroke-width="2.5" opacity="0.8" />
<line x1="658.286" y1="612.571" x2="715.429" y2="625.143" stroke="#3fb950" stroke-width="2.5" opacity="0.8" />
<line x1="635.429" y1="298.286" x2="648" y2="424" stroke="#3fb950" stroke-width="2.5" opacity="0.8" />
<line x1="371.429" y1="635.429" x2="460.571" y2="616" stroke="#3fb950" stroke-width="2.5" opacity="0.8" />
<line x1="825.143" y1="741.714" x2="920" y2="742.857" stroke="#3fb950" stroke-width="2.5" opacity="0.8" />
<line x1="286.857" y1="291.429" x2="290.286" y2="424" stroke="#3fb950" stroke-width="2.5" opacity="0.8" />
<line x1="290.286" y1="424" x2="394.286" y2="440" stroke="#3fb950" stroke-width="2.5" opacity="0.8" />
<line x1="467.429" y1="99.4286" x2="456" y2="293.714" stroke="#3fb950" stroke-width="2.5" opacity="0.8" />
<line x1="548.571" y1="98.2857" x2="545.143" y2="292.571" stroke="#3fb950" stroke-width="2.5" opacity="0.8" />
<line x1="83.4286" y1="112" x2="84.5714" y2="313.143" stroke="#3fb950" stroke-width="2.5" opacity="0.8" />
<line x1="394.286" y1="440" x2="464" y2="405.714" stroke="#3fb950" stroke-width="2.5" opacity="0.8" />
<line x1="80" y1="729.143" x2="200" y2="739.429" stroke="#3fb950" stroke-width="2.5" opacity="0.8" />
<line x1="560" y1="618.286" x2="556.571" y2="736" stroke="#3fb950" stroke-width="2.5" opacity="0.8" />
<line x1="816" y1="310.857" x2="900.571" y2="320" stroke="#3fb950" stroke-width="2.5" opacity="0.8" />
<line x1="371.429" y1="635.429" x2="377.143" y2="754.286" stroke="#3fb950" stroke-width="2.5" opacity="0.8" />
<line x1="205.714" y1="412.571" x2="176" y2="632" stroke="#3fb950" stroke-width="2.5" opacity="0.8" />
<line x1="84.5714" y1="313.143" x2="93.7143" y2="425.143" stroke="#3fb950" stroke-width="2.5" opacity="0.8" />
<line x1="298.286" y1="721.143" x2="377.143" y2="754.286" stroke="#3fb950" stroke-width="2.5" opacity="0.8" />
<circle cx="83.4286" cy="112" r="9" fill="#238636" stroke="#ffffff" stroke-width="1.5" />
<text x="95.4286" y="116" fill="#c9d1d9" font-size="11" font-family="sans-serif" font-weight="bold">0</text>
<circle cx="206.857" cy="107.429" r="9" fill="#238636" stroke="#ffffff" stroke-width="1.5" />
<text x="218.857" y="111.429" fill="#c9d1d9" font-size="11" font-family="sans-serif" font-weight="bold">1</text>
<circle cx="269.714" cy="83.4286" r="9" fill="#238636" stroke="#ffffff" stroke-width="1.5" />
<text x="281.714" y="87.4286" fill="#c9d1d9" font-size="11" font-family="sans-serif" font-weight="bold">2</text>
<circle cx="392" cy="112" r="9" fill="#238636" stroke="#ffffff" stroke-width="1.5" />
<text x="404" y="116" fill="#c9d1d9" font-size="11" font-family="sans-serif" font-weight="bold">3</text>
<circle cx="467.429" cy="99.4286" r="9" fill="#238636" stroke="#ffffff" stroke-width="1.5" />
<text x="479.429" y="103.429" fill="#c9d1d9" font-size="11" font-family="sans-serif" font-weight="bold">4</text>
<circle cx="548.571" cy="98.2857" r="9" fill="#238636" stroke="#ffffff" stroke-width="1.5" />
<text x="560.571" y="102.286" fill="#c9d1d9" font-size="11" font-family="sans-serif" font-weight="bold">5</text>
<circle cx="626.286" cy="98.2857" r="9" fill="#238636" stroke="#ffffff" stroke-width="1.5" />
<text x="638.286" y="102.286" fill="#c9d1d9" font-size="11" font-family="sans-serif" font-weight="bold">6</text>
<circle cx="744" cy="108.571" r="9" fill="#238636" stroke="#ffffff" stroke-width="1.5" />
<text x="756" y="112.571" fill="#c9d1d9" font-size="11" font-family="sans-serif" font-weight="bold">7</text>
<circle cx="808" cy="80" r="9" fill="#238636" stroke="#ffffff" stroke-width="1.5" />
<text x="820" y="84" fill="#c9d1d9" font-size="11" font-family="sans-serif" font-weight="bold">8</text>
<circle cx="896" cy="114.286" r="9" fill="#238636" stroke="#ffffff" stroke-width="1.5" />
<text x="908" y="118.286" fill="#c9d1d9" font-size="11" font-family="sans-serif" font-weight="bold">9</text>
<circle cx="84.5714" cy="313.143" r="9" fill="#238636" stroke="#ffffff" stroke-width="1.5" />
<text x="96.5714" y="317.143" fill="#c9d1d9" font-size="11" font-family="sans-serif" font-weight="bold">10</text>
<circle cx="196.571" cy="305.143" r="9" fill="#238636" stroke="#ffffff" stroke-width="1.5" />
<text x="208.571" y="309.143" fill="#c9d1d9" font-size="11" font-family="sans-serif" font-weight="bold">11</text>
<circle cx="286.857" cy="291.429" r="9" fill="#238636" stroke="#ffffff" stroke-width="1.5" />
<text x="298.857" y="295.429" fill="#c9d1d9" font-size="11" font-family="sans-serif" font-weight="bold">12</text>
<circle cx="376" cy="294.857" r="9" fill="#238636" stroke="#ffffff" stroke-width="1.5" />
<text x="388" y="298.857" fill="#c9d1d9" font-size="11" font-family="sans-serif" font-weight="bold">13</text>
<circle cx="456" cy="293.714" r="9" fill="#238636" stroke="#ffffff" stroke-width="1.5" />
<text x="468" y="297.714" fill="#c9d1d9" font-size="11" font-family="sans-serif" font-weight="bold">14</text>
<circle cx="545.143" cy="292.571" r="9" fill="#238636" stroke="#ffffff" stroke-width="1.5" />
<text x="557.143" y="296.571" fill="#c9d1d9" font-size="11" font-family="sans-serif" font-weight="bold">15</text>
<circle cx="635.429" cy="298.286" r="9" fill="#238636" stroke="#ffffff" stroke-width="1.5" />
<text x="647.429" y="302.286" fill="#c9d1d9" font-size="11" font-family="sans-serif" font-weight="bold">16</text>
<circle cx="718.857" cy="299.429" r="9" fill="#238636" stroke="#ffffff" stroke-width="1.5" />
<text x="730.857" y="303.429" fill="#c9d1d9" font-size="11" font-family="sans-serif" font-weight="bold">17</text>
<circle cx="816" cy="310.857" r="9" fill="#238636" stroke="#ffffff" stroke-width="1.5" />
<text x="828" y="314.857" fill="#c9d1d9" font-size="11" font-family="sans-serif" font-weight="bold">18</text>
<circle cx="900.571" cy="320" r="9" fill="#238636" stroke="#ffffff" stroke-width="1.5" />
<text x="912.571" y="324" fill="#c9d1d9" font-size="11" font-family="sans-serif" font-weight="bold">19</text>
<circle cx="93.7143" cy="425.143" r="9" fill="#238636" stroke="#ffffff" stroke-width="1.5" />
<text x="105.714" y="429.143" fill="#c9d1d9" font-size="11" font-family="sans-serif" font-weight="bold">20</text>
<circle cx="205.714" cy="412.571" r="9" fill="#238636" stroke="#ffffff" stroke-width="1.5" />
<text x="217.714" y="416.571" fill="#c9d1d9" font-size="11" font-family="sans-serif" font-weight="bold">21</text>
<circle cx="290.286" cy="424" r="9" fill="#238636" stroke="#ffffff" stroke-width="1.5" />
<text x="302.286" y="428" fill="#c9d1d9" font-size="11" font-family="sans-serif" font-weight="bold">22</text>
<circle cx="394.286" cy="440" r="9" fill="#238636" stroke="#ffffff" stroke-width="1.5" />
<text x="406.286" y="444" fill="#c9d1d9" font-size="11" font-family="sans-serif" font-weight="bold">23</text>
<circle cx="464" cy="405.714" r="9" fill="#238636" stroke="#ffffff" stroke-width="1.5" />
<text x="476" y="409.714" fill="#c9d1d9" font-size="11" font-family="sans-serif" font-weight="bold">24</text>
<circle cx="548.571" cy="404.571" r="9" fill="#238636" stroke="#ffffff" stroke-width="1.5" />
<text x="560.571" y="408.571" fill="#c9d1d9" font-size="11" font-family="sans-serif" font-weight="bold">25</text>
<circle cx="648" cy="424" r="9" fill="#238636" stroke="#ffffff" stroke-width="1.5" />
<text x="660" y="428" fill="#c9d1d9" font-size="11" font-family="sans-serif" font-weight="bold">26</text>
<circle cx="714.286" cy="437.714" r="9" fill="#238636" stroke="#ffffff" stroke-width="1.5" />
<text x="726.286" y="441.714" fill="#c9d1d9" font-size="11" font-family="sans-serif" font-weight="bold">27</text>
<circle cx="813.714" cy="436.571" r="9" fill="#238636" stroke="#ffffff" stroke-width="1.5" />
<text x="825.714" y="440.571" fill="#c9d1d9" font-size="11" font-family="sans-serif" font-weight="bold">28</text>
<circle cx="889.143" cy="403.429" r="9" fill="#238636" stroke="#ffffff" stroke-width="1.5" />
<text x="901.143" y="407.429" fill="#c9d1d9" font-size="11" font-family="sans-serif" font-weight="bold">29</text>
<circle cx="93.7143" cy="635.429" r="9" fill="#238636" stroke="#ffffff" stroke-width="1.5" />
<text x="105.714" y="639.429" fill="#c9d1d9" font-size="11" font-family="sans-serif" font-weight="bold">30</text>
<circle cx="176" cy="632" r="9" fill="#238636" stroke="#ffffff" stroke-width="1.5" />
<text x="188" y="636" fill="#c9d1d9" font-size="11" font-family="sans-serif" font-weight="bold">31</text>
<circle cx="294.857" cy="617.143" r="9" fill="#238636" stroke="#ffffff" stroke-width="1.5" />
<text x="306.857" y="621.143" fill="#c9d1d9" font-size="11" font-family="sans-serif" font-weight="bold">32</text>
<circle cx="371.429" cy="635.429" r="9" fill="#238636" stroke="#ffffff" stroke-width="1.5" />
<text x="383.429" y="639.429" fill="#c9d1d9" font-size="11" font-family="sans-serif" font-weight="bold">33</text>
<circle cx="460.571" cy="616" r="9" fill="#238636" stroke="#ffffff" stroke-width="1.5" />
<text x="472.571" y="620" fill="#c9d1d9" font-size="11" font-family="sans-serif" font-weight="bold">34</text>
<circle cx="560" cy="618.286" r="9" fill="#238636" stroke="#ffffff" stroke-width="1.5" />
<text x="572" y="622.286" fill="#c9d1d9" font-size="11" font-family="sans-serif" font-weight="bold">35</text>
<circle cx="658.286" cy="612.571" r="9" fill="#238636" stroke="#ffffff" stroke-width="1.5" />
<text x="670.286" y="616.571" fill="#c9d1d9" font-size="11" font-family="sans-serif" font-weight="bold">36</text>
<circle cx="715.429" cy="625.143" r="9" fill="#238636" stroke="#ffffff" stroke-width="1.5" />
<text x="727.429" y="629.143" fill="#c9d1d9" font-size="11" font-family="sans-serif" font-weight="bold">37</text>
<circle cx="816" cy="619.429" r="9" fill="#238636" stroke="#ffffff" stroke-width="1.5" />
<text x="828" y="623.429" fill="#c9d1d9" font-size="11" font-family="sans-serif" font-weight="bold">38</text>
<circle cx="894.857" cy="621.714" r="9" fill="#238636" stroke="#ffffff" stroke-width="1.5" />
<text x="906.857" y="625.714" fill="#c9d1d9" font-size="11" font-family="sans-serif" font-weight="bold">39</text>
<circle cx="80" cy="729.143" r="9" fill="#238636" stroke="#ffffff" stroke-width="1.5" />
<text x="92" y="733.143" fill="#c9d1d9" font-size="11" font-family="sans-serif" font-weight="bold">40</text>
<circle cx="200" cy="739.429" r="9" fill="#238636" stroke="#ffffff" stroke-width="1.5" />
<text x="212" y="743.429" fill="#c9d1d9" font-size="11" font-family="sans-serif" font-weight="bold">41</text>
<circle cx="298.286" cy="721.143" r="9" fill="#238636" stroke="#ffffff" stroke-width="1.5" />
<text x="310.286" y="725.143" fill="#c9d1d9" font-size="11" font-family="sans-serif" font-weight="bold">42</text>
<circle cx="377.143" cy="754.286" r="9" fill="#238636" stroke="#ffffff" stroke-width="1.5" />
<text x="389.143" y="758.286" fill="#c9d1d9" font-size="11" font-family="sans-serif" font-weight="bold">43</text>
<circle cx="465.143" cy="739.429" r="9" fill="#238636" stroke="#ffffff" stroke-width="1.5" />
<text x="477.143" y="743.429" fill="#c9d1d9" font-size="11" font-family="sans-serif" font-weight="bold">44</text>
<circle cx="556.571" cy="736" r="9" fill="#238636" stroke="#ffffff" stroke-width="1.5" />
<text x="568.571" y="740" fill="#c9d1d9" font-size="11" font-family="sans-serif" font-weight="bold">45</text>
<circle cx="641.143" cy="741.714" r="9" fill="#238636" stroke="#ffffff" stroke-width="1.5" />
<text x="653.143" y="745.714" fill="#c9d1d9" font-size="11" font-family="sans-serif" font-weight="bold">46</text>
<circle cx="739.429" cy="731.429" r="9" fill="#238636" stroke="#ffffff" stroke-width="1.5" />
<text x="751.429" y="735.429" fill="#c9d1d9" font-size="11" font-family="sans-serif" font-weight="bold">47</text>
<circle cx="825.143" cy="741.714" r="9" fill="#238636" stroke="#ffffff" stroke-width="1.5" />
<text x="837.143" y="745.714" fill="#c9d1d9" font-size="11" font-family="sans-serif" font-weight="bold">48</text>
<circle cx="920" cy="742.857" r="9" fill="#238636" stroke="#ffffff" stroke-width="1.5" />
<text x="932" y="746.857" fill="#c9d1d9" font-size="11" font-family="sans-serif" font-weight="bold">49</text>
</svg>
